<?xml version="1.0" encoding="utf-8"?>
<!-- Generator: Adobe Illustrator 25.4.1, SVG Export Plug-In . SVG Version: 6.00 Build 0)  -->
<svg version="1.1" id="Layer_1" xmlns="http://www.w3.org/2000/svg" xmlns:xlink="http://www.w3.org/1999/xlink" x="0px" y="0px"
	 viewBox="0 0 512 512" style="enable-background:new 0 0 512 512;" xml:space="preserve">
<style type="text/css">
	.st0{fill:#004FAC;}
</style>
<g>
	<g>
		<path class="st0" d="M282.8,238.6h-11.1v-8.7c0-0.5-0.4-1-1-1c-0.2,0-0.4,0.1-0.6,0.2l-1.8,1.4l-1.8-1.4c-0.4-0.3-0.8-0.3-1.2,0
			l-1.8,1.4l-1.8-1.4c-0.4-0.3-0.8-0.3-1.2,0l-1.8,1.4l-1.8-1.4c-0.4-0.3-0.8-0.3-1.2,0l-1.8,1.4l-1.8-1.4c-0.4-0.3-0.8-0.3-1.2,0
			l-1.8,1.4l-1.8-1.4c-0.4-0.3-0.8-0.3-1.2,0l-1.8,1.4l-1.8-1.4c-0.4-0.4-1-0.2-1.4,0.2c-0.1,0.2-0.2,0.4-0.2,0.6v8.6h-11.1
			c-1.9,0-3.4,1.5-3.4,3.4v37.8c0,1.9,1.5,3.4,3.4,3.4h53.3c1.9,0,3.4-1.5,3.4-3.4v-37.8C286.2,240.1,284.7,238.6,282.8,238.6
			L282.8,238.6z M271.7,262.8h1v3.9h-1V262.8z M242.6,231.9l0.8,0.7c0.4,0.3,0.8,0.3,1.2,0l1.8-1.4l1.8,1.4c0.4,0.3,0.8,0.3,1.2,0
			l1.8-1.4l1.8,1.4c0.4,0.3,0.8,0.3,1.2,0l1.8-1.4l1.8,1.4c0.4,0.3,0.8,0.3,1.2,0l1.8-1.4l1.8,1.4c0.4,0.3,0.8,0.3,1.2,0l1.8-1.4
			l1.8,1.4c0.4,0.3,0.8,0.3,1.2,0l0.8-0.7v29.5c-0.1,0.1-0.1,0.3-0.1,0.5v4.9h-27L242.6,231.9z M272.6,268.6v1.9h-32.9v-1.9H272.6z
			 M239.7,272.5h32.9v4.9h-32.9V272.5L239.7,272.5z M239.6,266.6v-3.9h1.1v3.9H239.6z M228.1,241.9c0-0.8,0.7-1.4,1.4-1.4h11.1v3.9
			H228L228.1,241.9L228.1,241.9z M284.3,279.7c0,0.8-0.7,1.4-1.4,1.4h-53.3c-0.8,0-1.4-0.7-1.4-1.4v-33.4h12.6v14.5h-2
			c-0.5,0-1,0.4-1,1v5.8c0,0.2,0.1,0.3,0.1,0.5v10.2c0,0.5,0.4,1,1,1h34.8c0.5,0,1-0.4,1-1v-16.5c0-0.5-0.4-1-1-1h-1.9v-14.5h12.6
			V279.7z M284.3,244.3h-12.6v-3.9h11.1c0.8,0,1.4,0.7,1.4,1.4L284.3,244.3L284.3,244.3z"/>
		<path class="st0" d="M230.1,243.4h1c0.5,0,1-0.4,1-1s-0.4-1-1-1h-1c-0.5,0-1,0.4-1,1S229.5,243.4,230.1,243.4z"/>
		<path class="st0" d="M233.9,243.4h1c0.5,0,1-0.4,1-1s-0.4-1-1-1h-1c-0.5,0-1,0.4-1,1S233.4,243.4,233.9,243.4z"/>
		<path class="st0" d="M237.8,243.4h1c0.5,0,1-0.4,1-1s-0.4-1-1-1h-1c-0.5,0-1,0.4-1,1S237.3,243.4,237.8,243.4z"/>
		<path class="st0" d="M245.5,241.5h1c0.5,0,1-0.4,1-1c0-0.5-0.4-1-1-1h-1c-0.5,0-1,0.4-1,1C244.5,241,245,241.5,245.5,241.5z"/>
		<path class="st0" d="M252.3,241.5h14.5c0.5,0,1-0.4,1-1c0-0.5-0.4-1-1-1h-14.5c-0.5,0-1,0.4-1,1
			C251.3,241,251.8,241.5,252.3,241.5z"/>
		<path class="st0" d="M245.5,244.3h1c0.5,0,1-0.4,1-1s-0.4-1-1-1h-1c-0.5,0-1,0.4-1,1S245,244.3,245.5,244.3z"/>
		<path class="st0" d="M252.3,244.3h14.5c0.5,0,1-0.4,1-1s-0.4-1-1-1h-14.5c-0.5,0-1,0.4-1,1S251.8,244.3,252.3,244.3z"/>
		<path class="st0" d="M245.5,247.3h1c0.5,0,1-0.4,1-1c0-0.5-0.4-1-1-1h-1c-0.5,0-1,0.4-1,1C244.6,246.9,245,247.3,245.5,247.3z"/>
		<path class="st0" d="M252.3,247.3h14.5c0.5,0,1-0.4,1-1c0-0.5-0.4-1-1-1h-14.5c-0.5,0-1,0.4-1,1
			C251.3,246.9,251.8,247.3,252.3,247.3z"/>
		<path class="st0" d="M245.5,250.2h1c0.5,0,1-0.4,1-1s-0.4-1-1-1h-1c-0.5,0-1,0.4-1,1C244.5,249.8,245,250.2,245.5,250.2z"/>
		<path class="st0" d="M252.3,250.2h14.5c0.5,0,1-0.4,1-1s-0.4-1-1-1h-14.5c-0.5,0-1,0.4-1,1C251.3,249.8,251.8,250.2,252.3,250.2z"
			/>
		<path class="st0" d="M245.5,253.1h1c0.5,0,1-0.4,1-1c0-0.5-0.4-1-1-1h-1c-0.5,0-1,0.4-1,1C244.6,252.7,245,253.1,245.5,253.1z"/>
		<path class="st0" d="M252.3,253.1h14.5c0.5,0,1-0.4,1-1c0-0.5-0.4-1-1-1h-14.5c-0.5,0-1,0.4-1,1
			C251.3,252.7,251.8,253.1,252.3,253.1z"/>
		<path class="st0" d="M245.5,256h1c0.5,0,1-0.4,1-1s-0.4-1-1-1h-1c-0.5,0-1,0.4-1,1S245,256,245.5,256z"/>
		<path class="st0" d="M252.3,256h14.5c0.5,0,1-0.4,1-1s-0.4-1-1-1h-14.5c-0.5,0-1,0.4-1,1S251.8,256,252.3,256z"/>
		<path class="st0" d="M245.5,258.9h1c0.5,0,1-0.4,1-1s-0.4-1-1-1h-1c-0.5,0-1,0.4-1,1S245,258.9,245.5,258.9z"/>
		<path class="st0" d="M252.3,258.9h14.5c0.5,0,1-0.4,1-1s-0.4-1-1-1h-14.5c-0.5,0-1,0.4-1,1S251.8,258.9,252.3,258.9z"/>
		<path class="st0" d="M249.4,259.8c0.5,0,1-0.4,1-1v-19.4c0-0.5-0.4-1-1-1c-0.5,0-1,0.4-1,1v19.4
			C248.4,259.4,248.9,259.8,249.4,259.8z"/>
	</g>
</g>
</svg>
