<?xml version="1.0" encoding="utf-8"?>
<!-- Generator: Adobe Illustrator 25.2.0, SVG Export Plug-In . SVG Version: 6.00 Build 0)  -->
<svg version="1.1" id="Layer_1" xmlns="http://www.w3.org/2000/svg" xmlns:xlink="http://www.w3.org/1999/xlink" x="0px" y="0px"
	 viewBox="0 0 100 100" style="enable-background:new 0 0 100 100;" xml:space="preserve">
<style type="text/css">
	.st0{fill:url(#Path_10110_1_);}
	.st1{fill:url(#Path_10111_1_);}
	.st2{fill:url(#Path_10112_1_);}
	.st3{fill:url(#Path_10113_1_);}
	.st4{fill:url(#Path_10114_1_);}
	.st5{fill:url(#Path_10115_1_);}
	.st6{fill:url(#Path_10116_1_);}
	.st7{fill:url(#Path_10117_1_);}
	.st8{fill:url(#Path_10118_1_);}
	.st9{fill:url(#Path_10119_1_);}
	.st10{fill:url(#Path_10120_1_);}
	.st11{fill:url(#Path_10121_1_);}
	.st12{fill:url(#Path_10122_1_);}
	.st13{fill:url(#Path_10123_1_);}
	.st14{fill:url(#Path_10124_1_);}
	.st15{fill:url(#Path_10125_1_);}
	.st16{fill:url(#Path_10126_1_);}
	.st17{fill:url(#Path_10127_1_);}
	.st18{fill:url(#Path_10128_1_);}
</style>
<g id="bill" transform="translate(0)">
	<g id="Group_10812" transform="translate(0)">
		
			<linearGradient id="Path_10110_1_" gradientUnits="userSpaceOnUse" x1="5.5216" y1="93.7131" x2="7.1407" y2="93.7131" gradientTransform="matrix(60.1002 0 0 -54.2253 -315.1003 5131.7515)">
			<stop  offset="0" style="stop-color:#4F536D"/>
			<stop  offset="1" style="stop-color:#ECA570"/>
		</linearGradient>
		<path id="Path_10110" class="st0" d="M91.35,22.83H73.92V9.17c0-0.87-0.7-1.57-1.57-1.57c-0.33,0.03-0.66,0.14-0.94,0.31
			l-2.83,2.2l-2.83-2.2c-0.54-0.47-1.34-0.47-1.88,0l-2.83,2.2l-2.83-2.2c-0.54-0.47-1.34-0.47-1.88,0l-2.83,2.2l-2.83-2.2
			c-0.54-0.47-1.34-0.47-1.88,0l-2.83,2.2l-2.83-2.2c-0.54-0.47-1.34-0.47-1.88,0l-2.83,2.2l-2.83-2.2c-0.54-0.47-1.34-0.47-1.88,0
			l-2.83,2.2l-2.83-2.2c-0.68-0.52-1.65-0.4-2.18,0.28c-0.01,0.01-0.02,0.02-0.02,0.03c-0.17,0.29-0.28,0.61-0.31,0.94v13.51H8.12
			C5.2,22.65,2.8,25,2.78,27.92c0,0.03,0,0.06,0,0.09v59.36c-0.02,2.92,2.33,5.32,5.25,5.34c0.03,0,0.06,0,0.09,0h83.7
			c2.92,0.02,5.32-2.33,5.34-5.25c0-0.03,0-0.06,0-0.09V28.01C96.74,25.1,94.29,22.91,91.35,22.83L91.35,22.83z M73.92,60.83h1.57
			v6.12h-1.57V60.83z M28.22,12.31l1.26,1.1c0.54,0.47,1.34,0.47,1.88,0l2.83-2.2l2.83,2.2c0.54,0.47,1.34,0.47,1.88,0l2.83-2.2
			l2.83,2.2c0.54,0.47,1.34,0.47,1.88,0l2.83-2.2l2.83,2.2c0.54,0.47,1.34,0.47,1.88,0l2.83-2.2l2.83,2.2
			c0.54,0.47,1.34,0.47,1.88,0l2.83-2.2l2.83,2.2c0.54,0.47,1.34,0.47,1.88,0l1.26-1.1v46.33c-0.14,0.24-0.2,0.51-0.16,0.79v7.7
			h-42.4L28.22,12.31z M75.33,69.94v2.98H23.67v-2.98H75.33z M23.67,76.07h51.67v7.7H23.67L23.67,76.07L23.67,76.07z M23.51,66.8
			v-6.12h1.73v6.12H23.51z M5.45,28.01c0.02-1.2,0.99-2.17,2.2-2.2h17.43v6.12H5.29L5.45,28.01L5.45,28.01z M93.71,87.37
			c-0.03,1.2-0.99,2.17-2.2,2.2H7.81c-1.2-0.03-2.17-0.99-2.2-2.2V34.92h19.79v22.77h-3.14c-0.87,0-1.57,0.7-1.57,1.57v9.11
			c0,0.31,0.16,0.47,0.16,0.79v16.02c0,0.87,0.7,1.57,1.57,1.57h54.65c0.87,0,1.57-0.7,1.57-1.57V59.26c0-0.87-0.7-1.57-1.57-1.57
			h-2.98V34.92h19.79v52.45L93.71,87.37z M93.71,31.78H73.92v-6.12h17.43c1.2,0.02,2.17,0.99,2.2,2.2L93.71,31.78L93.71,31.78z"/>
		
			<linearGradient id="Path_10111_1_" gradientUnits="userSpaceOnUse" x1="87.5726" y1="-79.3293" x2="89.1917" y2="-79.3293" gradientTransform="matrix(3.0035 0 0 -2.0034 -255.3052 -130.133)">
			<stop  offset="0" style="stop-color:#4F536D"/>
			<stop  offset="1" style="stop-color:#ECA570"/>
		</linearGradient>
		<path id="Path_10111" class="st1" d="M8.59,30.37h1.57c0.87,0,1.57-0.7,1.57-1.57c0.05-0.82-0.57-1.52-1.39-1.57
			c-0.06,0-0.12,0-0.18,0H8.59c-0.87,0-1.57,0.7-1.57,1.57c-0.05,0.82,0.57,1.52,1.39,1.57C8.47,30.37,8.53,30.37,8.59,30.37z"/>
		
			<linearGradient id="Path_10112_1_" gradientUnits="userSpaceOnUse" x1="88.3451" y1="-79.4812" x2="89.9642" y2="-79.4812" gradientTransform="matrix(3.0017 0 0 -2.0017 -251.5017 -130.3041)">
			<stop  offset="0" style="stop-color:#4F536D"/>
			<stop  offset="1" style="stop-color:#ECA570"/>
		</linearGradient>
		<path id="Path_10112" class="st2" d="M14.56,30.37h1.57c0.87,0,1.57-0.7,1.57-1.57c0.05-0.82-0.57-1.52-1.39-1.57
			c-0.06,0-0.12,0-0.18,0h-1.57c-0.87,0-1.57,0.7-1.57,1.57S13.69,30.37,14.56,30.37z"/>
		
			<linearGradient id="Path_10113_1_" gradientUnits="userSpaceOnUse" x1="89.0862" y1="-79.4812" x2="90.7053" y2="-79.4812" gradientTransform="matrix(3.0017 0 0 -2.0017 -247.6017 -130.3041)">
			<stop  offset="0" style="stop-color:#4F536D"/>
			<stop  offset="1" style="stop-color:#ECA570"/>
		</linearGradient>
		<path id="Path_10113" class="st3" d="M20.68,30.37h1.57c0.87,0,1.57-0.7,1.57-1.57c0.05-0.82-0.57-1.52-1.39-1.57
			c-0.06,0-0.12,0-0.18,0h-1.57c-0.87,0-1.57,0.7-1.57,1.57S19.82,30.37,20.68,30.37z"/>
		
			<linearGradient id="Path_10114_1_" gradientUnits="userSpaceOnUse" x1="90.6008" y1="-79.0933" x2="92.2199" y2="-79.0933" gradientTransform="matrix(3 0 0 -2 -239.9 -132.375)">
			<stop  offset="0" style="stop-color:#4F536D"/>
			<stop  offset="1" style="stop-color:#ECA570"/>
		</linearGradient>
		<path id="Path_10114" class="st4" d="M32.78,27.38h1.57c0.87,0,1.57-0.7,1.57-1.57c0-0.87-0.7-1.57-1.57-1.57h-1.57
			c-0.87,0-1.57,0.7-1.57,1.57C31.26,26.65,31.93,27.33,32.78,27.38z"/>
		
			<linearGradient id="Path_10115_1_" gradientUnits="userSpaceOnUse" x1="17.7163" y1="-79.0933" x2="19.3354" y2="-79.0933" gradientTransform="matrix(16.5 0 0 -2 -246.6 -132.375)">
			<stop  offset="0" style="stop-color:#4F536D"/>
			<stop  offset="1" style="stop-color:#ECA570"/>
		</linearGradient>
		<path id="Path_10115" class="st5" d="M43.45,27.38h22.77c0.87,0,1.57-0.7,1.57-1.57c0-0.87-0.7-1.57-1.57-1.57H43.45
			c-0.87,0-1.57,0.7-1.57,1.57C41.94,26.65,42.61,27.33,43.45,27.38z"/>
		
			<linearGradient id="Path_10116_1_" gradientUnits="userSpaceOnUse" x1="90.5495" y1="-79.7377" x2="92.1686" y2="-79.7377" gradientTransform="matrix(3.0017 0 0 -2.0017 -239.9017 -129.4041)">
			<stop  offset="0" style="stop-color:#4F536D"/>
			<stop  offset="1" style="stop-color:#ECA570"/>
		</linearGradient>
		<path id="Path_10116" class="st6" d="M32.78,31.78h1.57c0.87,0,1.57-0.7,1.57-1.57c0.05-0.82-0.57-1.52-1.39-1.57
			c-0.06,0-0.12,0-0.18,0h-1.57c-0.87,0-1.57,0.7-1.57,1.57C31.21,31.08,31.91,31.78,32.78,31.78z"/>
		
			<linearGradient id="Path_10117_1_" gradientUnits="userSpaceOnUse" x1="17.7146" y1="-79.7377" x2="19.3337" y2="-79.7377" gradientTransform="matrix(16.5017 0 0 -2.0017 -246.6017 -129.4041)">
			<stop  offset="0" style="stop-color:#4F536D"/>
			<stop  offset="1" style="stop-color:#ECA570"/>
		</linearGradient>
		<path id="Path_10117" class="st7" d="M43.45,31.78h22.77c0.87,0,1.57-0.7,1.57-1.57c0.05-0.82-0.57-1.52-1.39-1.57
			c-0.06,0-0.12,0-0.18,0H43.45c-0.87,0-1.57,0.7-1.57,1.57C41.88,31.08,42.59,31.78,43.45,31.78z"/>
		
			<linearGradient id="Path_10118_1_" gradientUnits="userSpaceOnUse" x1="90.6008" y1="-80.7476" x2="92.2199" y2="-80.7476" gradientTransform="matrix(3 0 0 -2 -239.9 -126.575)">
			<stop  offset="0" style="stop-color:#4F536D"/>
			<stop  offset="1" style="stop-color:#ECA570"/>
		</linearGradient>
		<path id="Path_10118" class="st8" d="M32.78,36.49h1.57c0.87,0,1.57-0.7,1.57-1.57s-0.7-1.57-1.57-1.57h-1.57
			c-0.87,0-1.57,0.7-1.57,1.57C31.26,35.76,31.93,36.44,32.78,36.49z"/>
		
			<linearGradient id="Path_10119_1_" gradientUnits="userSpaceOnUse" x1="17.7163" y1="-80.7476" x2="19.3354" y2="-80.7476" gradientTransform="matrix(16.5 0 0 -2 -246.6 -126.575)">
			<stop  offset="0" style="stop-color:#4F536D"/>
			<stop  offset="1" style="stop-color:#ECA570"/>
		</linearGradient>
		<path id="Path_10119" class="st9" d="M43.45,36.49h22.77c0.87,0,1.57-0.7,1.57-1.57s-0.7-1.57-1.57-1.57H43.45
			c-0.87,0-1.57,0.7-1.57,1.57S42.59,36.49,43.45,36.49z"/>
		
			<linearGradient id="Path_10120_1_" gradientUnits="userSpaceOnUse" x1="90.5495" y1="-81.419" x2="92.1686" y2="-81.419" gradientTransform="matrix(3.0017 0 0 -2.0017 -239.9017 -123.5041)">
			<stop  offset="0" style="stop-color:#4F536D"/>
			<stop  offset="1" style="stop-color:#ECA570"/>
		</linearGradient>
		<path id="Path_10120" class="st10" d="M32.78,41.04h1.57c0.87,0,1.57-0.7,1.57-1.57c0.05-0.82-0.57-1.52-1.39-1.57
			c-0.06,0-0.12,0-0.18,0h-1.57c-0.87,0-1.57,0.7-1.57,1.57S31.91,41.04,32.78,41.04z"/>
		
			<linearGradient id="Path_10121_1_" gradientUnits="userSpaceOnUse" x1="17.7146" y1="-81.419" x2="19.3337" y2="-81.419" gradientTransform="matrix(16.5017 0 0 -2.0017 -246.6017 -123.5041)">
			<stop  offset="0" style="stop-color:#4F536D"/>
			<stop  offset="1" style="stop-color:#ECA570"/>
		</linearGradient>
		<path id="Path_10121" class="st11" d="M43.45,41.04h22.77c0.87,0,1.57-0.7,1.57-1.57c0.05-0.82-0.57-1.52-1.39-1.57
			c-0.06,0-0.12,0-0.18,0H43.45c-0.87,0-1.57,0.7-1.57,1.57S42.59,41.04,43.45,41.04z"/>
		
			<linearGradient id="Path_10122_1_" gradientUnits="userSpaceOnUse" x1="90.6008" y1="-82.4018" x2="92.2199" y2="-82.4018" gradientTransform="matrix(3 0 0 -2 -239.9 -120.775)">
			<stop  offset="0" style="stop-color:#4F536D"/>
			<stop  offset="1" style="stop-color:#ECA570"/>
		</linearGradient>
		<path id="Path_10122" class="st12" d="M32.78,45.6h1.57c0.87,0,1.57-0.7,1.57-1.57c0-0.87-0.7-1.57-1.57-1.57h-1.57
			c-0.87,0-1.57,0.7-1.57,1.57C31.26,44.87,31.93,45.54,32.78,45.6z"/>
		
			<linearGradient id="Path_10123_1_" gradientUnits="userSpaceOnUse" x1="17.7163" y1="-82.4018" x2="19.3354" y2="-82.4018" gradientTransform="matrix(16.5 0 0 -2 -246.6 -120.775)">
			<stop  offset="0" style="stop-color:#4F536D"/>
			<stop  offset="1" style="stop-color:#ECA570"/>
		</linearGradient>
		<path id="Path_10123" class="st13" d="M43.45,45.6h22.77c0.87,0,1.57-0.7,1.57-1.57c0-0.87-0.7-1.57-1.57-1.57H43.45
			c-0.87,0-1.57,0.7-1.57,1.57C41.88,44.9,42.59,45.6,43.45,45.6z"/>
		
			<linearGradient id="Path_10124_1_" gradientUnits="userSpaceOnUse" x1="90.5495" y1="-83.0718" x2="92.1686" y2="-83.0718" gradientTransform="matrix(3.0017 0 0 -2.0017 -239.9017 -117.7041)">
			<stop  offset="0" style="stop-color:#4F536D"/>
			<stop  offset="1" style="stop-color:#ECA570"/>
		</linearGradient>
		<path id="Path_10124" class="st14" d="M32.78,50.15h1.57c0.87,0,1.57-0.7,1.57-1.57c0.05-0.82-0.57-1.52-1.39-1.57
			c-0.06,0-0.12,0-0.18,0h-1.57c-0.87,0-1.57,0.7-1.57,1.57C31.21,49.45,31.91,50.15,32.78,50.15z"/>
		
			<linearGradient id="Path_10125_1_" gradientUnits="userSpaceOnUse" x1="17.7146" y1="-83.0718" x2="19.3337" y2="-83.0718" gradientTransform="matrix(16.5017 0 0 -2.0017 -246.6017 -117.7041)">
			<stop  offset="0" style="stop-color:#4F536D"/>
			<stop  offset="1" style="stop-color:#ECA570"/>
		</linearGradient>
		<path id="Path_10125" class="st15" d="M43.45,50.15h22.77c0.87,0,1.57-0.7,1.57-1.57c0.05-0.82-0.57-1.52-1.39-1.57
			c-0.06,0-0.12,0-0.18,0H43.45c-0.87,0-1.57,0.7-1.57,1.57C41.88,49.45,42.59,50.15,43.45,50.15z"/>
		
			<linearGradient id="Path_10126_1_" gradientUnits="userSpaceOnUse" x1="90.5495" y1="-83.8982" x2="92.1686" y2="-83.8982" gradientTransform="matrix(3.0017 0 0 -2.0017 -239.9017 -114.8041)">
			<stop  offset="0" style="stop-color:#4F536D"/>
			<stop  offset="1" style="stop-color:#ECA570"/>
		</linearGradient>
		<path id="Path_10126" class="st16" d="M32.78,54.71h1.57c0.87,0,1.57-0.7,1.57-1.57c0.05-0.82-0.57-1.52-1.39-1.57
			c-0.06,0-0.12,0-0.18,0h-1.57c-0.87,0-1.57,0.7-1.57,1.57C31.21,54,31.91,54.71,32.78,54.71z"/>
		
			<linearGradient id="Path_10127_1_" gradientUnits="userSpaceOnUse" x1="17.7146" y1="-83.8982" x2="19.3337" y2="-83.8982" gradientTransform="matrix(16.5017 0 0 -2.0017 -246.6017 -114.8041)">
			<stop  offset="0" style="stop-color:#4F536D"/>
			<stop  offset="1" style="stop-color:#ECA570"/>
		</linearGradient>
		<path id="Path_10127" class="st17" d="M43.45,54.71h22.77c0.87,0,1.57-0.7,1.57-1.57c0.05-0.82-0.57-1.52-1.39-1.57
			c-0.06,0-0.12,0-0.18,0H43.45c-0.87,0-1.57,0.7-1.57,1.57C41.88,54,42.59,54.71,43.45,54.71z"/>
		
			<linearGradient id="Path_10128_1_" gradientUnits="userSpaceOnUse" x1="136.3973" y1="83.4863" x2="138.0164" y2="83.4863" gradientTransform="matrix(2 0 0 -21.4 -235 1825.9243)">
			<stop  offset="0" style="stop-color:#4F536D"/>
			<stop  offset="1" style="stop-color:#ECA570"/>
		</linearGradient>
		<path id="Path_10128" class="st18" d="M38.9,56.12c0.87,0,1.57-0.7,1.57-1.57V24.08c0-0.87-0.7-1.57-1.57-1.57
			c-0.87,0-1.57,0.7-1.57,1.57v30.47C37.33,55.42,38.03,56.12,38.9,56.12z"/>
	</g>
</g>
</svg>
