<?xml version="1.0" encoding="utf-8"?>
<!-- Generator: Adobe Illustrator 25.2.0, SVG Export Plug-In . SVG Version: 6.00 Build 0)  -->
<svg version="1.1" id="Layer_1" xmlns="http://www.w3.org/2000/svg" xmlns:xlink="http://www.w3.org/1999/xlink" x="0px" y="0px"
	 viewBox="0 0 100 100" style="enable-background:new 0 0 100 100;" xml:space="preserve">
<style type="text/css">
	.st0{fill:#FFFFFF;}
</style>
<path class="st0" d="M32.71,98.78c-0.64-0.16-1.28-0.31-1.91-0.5c-1.86-0.56-3.41-1.61-4.77-2.97
	c-6.88-6.89-13.77-13.76-20.64-20.65C0.7,69.96,0.73,63.33,5.42,58.61c2.2-2.22,4.42-4.42,6.57-6.57c3.87,3.86,7.7,7.69,11.7,11.69
	c-0.91,0.85-1.91,1.76-2.87,2.7c-1.04,1.01-2.07,2.04-3.08,3.09c-0.82,0.85-0.88,1.7-0.09,2.5c1.67,1.72,3.38,3.4,5.2,5.23
	c0.16-0.45,0.29-0.78,0.39-1.12c1.5-4.75,4.73-7.45,9.63-8.25c3.14-0.52,6.27-1.13,9.72-1.75c-0.29-0.46-0.42-0.91-0.72-1.1
	c-3.54-2.33-5.82-5.53-6.88-9.63c-0.08-0.29-0.4-0.64-0.69-0.74c-2.82-1.04-4.4-3.18-4.42-6.18c-0.03-3.57-0.04-7.14,0-10.71
	c0.13-9.98,6.95-18.2,16.59-20.04c10.88-2.07,21.6,5.14,23.71,16.01c0.29,1.48,0.39,3.01,0.4,4.52c0.04,5.85,0.02,11.69,0.02,17.54
	c0,3.56-1.88,5.51-5.45,5.4c-1.62-0.05-2.86,0.22-3.9,1.61c-0.66,0.88-1.74,1.44-2.6,2.18c-0.29,0.25-0.49,0.6-0.89,1.11
	c2.03,0.38,3.75,0.7,5.48,1.02c1.68,0.31,3.35,0.61,5.03,0.93c4.27,0.81,7.2,3.25,8.66,7.33c1.24,3.47,2.35,7,3.52,10.5
	c0.03,0.08,0.01,0.18,0.02,0.37c-11.08,0-22.15,0-33.51,0c0.98,0.84,1.76,1.5,2.59,2.21c-2.27,2.08-4.35,3.88-6.31,5.8
	c-2.25,2.21-4.68,4.03-7.89,4.53C34.48,98.78,33.59,98.78,32.71,98.78z M50.23,75.95c-2.13-2.14-4.17-4.21-6.25-6.23
	c-0.29-0.28-0.83-0.5-1.2-0.44c-3.39,0.57-6.77,1.19-10.15,1.83c-2.14,0.4-4.02,1.38-5.1,3.28c-0.89,1.57-1.41,3.35-2.04,5.06
	c-0.07,0.18,0.13,0.52,0.29,0.7c0.81,0.85,1.64,1.66,2.47,2.49c1.26,1.26,1.89,1.28,3.21,0.09c2.09-1.88,4.17-3.76,6.31-5.7
	c1.82,1.82,3.61,3.58,5.37,5.39c0.47,0.48,0.94,0.71,1.64,0.71C54.88,83.1,64.99,83.1,75.1,83.1c0.33,0,0.67,0,1.21,0
	c-1-2.79-1.8-5.45-2.91-7.97c-0.92-2.09-2.73-3.4-4.99-3.86c-3.49-0.71-7.01-1.29-10.51-1.97c-0.64-0.12-1.05-0.01-1.5,0.45
	C54.4,71.8,52.35,73.82,50.23,75.95z M34.59,40.82c3.07,0.08,5.95-0.29,8.69-1.52c2.74-1.24,4.89-3.21,6.96-5.38
	c2.09,2.18,4.23,4.16,6.97,5.4c2.76,1.25,5.67,1.56,8.69,1.53c0,0.67,0,1.2,0,1.74c0.5,0.2,0.96,0.39,1.49,0.61
	c0.02-0.24,0.06-0.42,0.05-0.6c-0.06-2.49,0.08-5.01-0.24-7.47c-1.6-12.52-16.7-18.9-26.91-11.47c-6.74,4.91-7.88,11.83-7.15,19.5
	c0.47-0.19,0.93-0.37,1.45-0.57C34.59,42.04,34.59,41.51,34.59,40.82z M58.17,61.2c-2.62,0-5.24,0-7.87,0c0-1.12,0-2.11,0-3.15
	c0.43,0,0.77,0,1.12,0c2.97,0,5.94,0.02,8.91-0.02c0.33,0,0.87-0.23,0.96-0.48c0.52-1.54,1.2-3.09,1.34-4.68
	c0.23-2.7,0.09-5.43,0.14-8.14c0.01-0.65-0.22-0.87-0.85-0.93c-2.32-0.21-4.55-0.82-6.58-1.94c-1.78-0.98-3.45-2.18-5.26-3.33
	c0.05-0.03-0.07,0.02-0.16,0.11c-3.3,2.95-7.12,4.74-11.54,5.18c-0.59,0.06-0.7,0.35-0.69,0.88c0.02,2.34-0.04,4.68,0.02,7.01
	c0.18,7.58,5.95,12.96,13.51,12.56C53.86,64.12,56.18,63.1,58.17,61.2z M15.25,67.53c-2.41-2.41-4.77-4.77-7.14-7.13
	c-3.81,3.33-4.17,8.32-0.66,11.87c6.95,7.04,13.94,14.03,20.98,20.98c3.53,3.48,8.85,3.1,11.82-0.61c-2.39-2.39-4.76-4.77-7.15-7.16
	c-2.45,1.86-4.72,1.7-6.99-0.56c-3.49-3.48-6.97-6.98-10.46-10.45c-0.83-0.83-1.44-1.75-1.63-2.92
	C13.76,69.96,14.34,68.63,15.25,67.53z M37.53,81.45c-0.58,0.53-1.22,1.11-1.72,1.56c2.42,2.43,4.79,4.81,7.19,7.21
	c0.54-0.51,1.17-1.11,1.69-1.6C42.27,86.21,39.94,83.87,37.53,81.45z M10.64,57.9c2.39,2.39,4.77,4.75,6.97,6.94
	c0.45-0.41,1-0.91,1.43-1.29c-2.32-2.33-4.67-4.68-7-7.02C11.59,56.97,11.07,57.48,10.64,57.9z M50.15,71.15
	c1.41-1.41,2.91-2.91,4.3-4.3c-2.75,0.81-5.73,0.77-8.62-0.04C47.31,68.3,48.82,69.81,50.15,71.15z M67.37,54.1
	c-0.67,0.33-1.51,0.48-1.76,0.94c-0.48,0.88-0.63,1.94-0.91,2.93C67.2,58.25,67.69,57.56,67.37,54.1z M34.51,51.23
	c0-1.75,0-3.41,0-5.18c-1.07,0.72-1.52,1.63-1.46,2.79C33.1,49.87,33.55,50.67,34.51,51.23z M65.93,51.25
	c2.19-1.23,1.74-4.52,0-5.07C65.93,47.84,65.93,49.5,65.93,51.25z"/>
<path class="st0" d="M74.73,33.01c0.55-3.21,1.06-6.22,1.6-9.38c-1.31,0-2.56,0.02-3.81,0c-2.44-0.05-4.25-1.28-4.83-3.36
	c-0.17-0.6-0.23-1.25-0.24-1.87c-0.02-3.82-0.02-7.65-0.01-11.47c0.01-3.32,1.93-5.23,5.25-5.23c6.95,0,13.9,0,20.86,0
	c3.29,0,5.19,1.87,5.21,5.15c0.02,3.89,0.02,7.77,0,11.66c-0.02,3.22-1.92,5.26-5.15,5.08c-2.74-0.16-4.98,0.61-7.21,2.13
	c-3.47,2.37-7.1,4.49-10.66,6.71C75.48,32.58,75.21,32.73,74.73,33.01z M79,26.68c2.11-1.32,4.1-2.37,5.88-3.71
	c2.61-1.96,5.4-2.92,8.69-2.53c1.54,0.18,2.08-0.51,2.09-2.09c0.01-3.7,0-7.39,0-11.09c0-2.01-0.42-2.43-2.45-2.43
	c-6.73,0-13.46,0-20.19,0c-0.32,0-0.63,0-0.95,0.03c-0.88,0.09-1.43,0.59-1.44,1.46c-0.03,4.2-0.03,8.4,0,12.6
	c0.01,1,0.66,1.53,1.78,1.53c2.21,0.02,4.42,0.01,6.63,0.01c0.31,0,0.61,0,1,0C79.69,22.54,79.37,24.5,79,26.68z"/>
<path class="st0" d="M7.55,40.25C14.35,13.23,41.31,1.37,63.19,8.39c-0.28,0.94-0.57,1.88-0.87,2.86c-14.79-3.89-28.08-1.2-39.56,9
	c-6.04,5.37-9.94,12.13-11.99,20.18c1.51-0.9,2.83-1.68,4.21-2.5c0.55,0.91,1.06,1.77,1.61,2.68c-3.08,1.85-6.08,3.65-9.17,5.5
	c-1.84-3.06-3.65-6.07-5.51-9.17c0.91-0.54,1.76-1.05,2.68-1.61C5.57,36.97,6.51,38.52,7.55,40.25z"/>
<path class="st0" d="M91.88,36.35c4.47,15.18,1.96,28.91-7.53,41.52c-0.84-0.68-1.61-1.3-2.43-1.96
	c8.84-11.74,11.2-24.59,6.89-38.88c-0.99,1.64-1.86,3.09-2.78,4.61c-0.92-0.55-1.77-1.06-2.68-1.61c1.85-3.08,3.64-6.07,5.5-9.17
	c3.06,1.83,6.07,3.64,9.16,5.5c-0.54,0.91-1.05,1.76-1.6,2.68C94.9,38.14,93.44,37.27,91.88,36.35z"/>
<path class="st0" d="M92.45,8c0,1.02,0,1.98,0,3.02c-6.22,0-12.41,0-18.68,0c0-1.01,0-1.99,0-3.02C80.01,8,86.21,8,92.45,8z"/>
<path class="st0" d="M73.76,17.3c0-1.03,0-1.99,0-3.02c4.13,0,8.24,0,12.41,0c0,0.99,0,1.98,0,3.02
	C82.02,17.3,77.92,17.3,73.76,17.3z"/>
<path class="st0" d="M89.44,17.3c0-1.05,0-2.02,0-3.04c1,0,1.96,0,2.99,0c0,1,0,1.99,0,3.04C91.45,17.3,90.49,17.3,89.44,17.3z"/>
</svg>
