<?xml version="1.0" encoding="utf-8"?>
<!-- Generator: Adobe Illustrator 25.2.0, SVG Export Plug-In . SVG Version: 6.00 Build 0)  -->
<svg version="1.1" id="Layer_1" xmlns="http://www.w3.org/2000/svg" xmlns:xlink="http://www.w3.org/1999/xlink" x="0px" y="0px"
	 viewBox="0 0 100 100" style="enable-background:new 0 0 100 100;" xml:space="preserve">
<style type="text/css">
	.st0{fill:url(#time-management_1_);}
</style>
<linearGradient id="time-management_1_" gradientUnits="userSpaceOnUse" x1="5.5376" y1="94.4156" x2="7.1646" y2="94.4156" gradientTransform="matrix(60.005 0 0 -59.9004 -314.505 5705.4424)">
	<stop  offset="0" style="stop-color:#4F536D"/>
	<stop  offset="1" style="stop-color:#ECA570"/>
</linearGradient>
<path id="time-management" class="st0" d="M15.44,25.84c0-0.78,0.64-1.42,1.42-1.42h23.67c0.78,0,1.42,0.64,1.42,1.42
	c0,0.78-0.64,1.42-1.42,1.42H16.86C16.08,27.26,15.44,26.63,15.44,25.84L15.44,25.84z M16.86,43.36h23.67
	c0.78,0,1.42-0.64,1.42-1.42c0-0.78-0.64-1.42-1.42-1.42H16.86c-0.78,0-1.42,0.64-1.42,1.42C15.44,42.72,16.08,43.36,16.86,43.36z
	 M33.27,56.3H16.86c-0.78,0-1.42,0.63-1.43,1.42c0,0.78,0.63,1.42,1.42,1.43c0,0,0.01,0,0.01,0h16.41c0.78,0,1.42-0.64,1.42-1.42
	C34.85,57.09,34.06,56.3,33.27,56.3L33.27,56.3z M33.27,72.4H16.86c-0.78,0-1.42,0.63-1.43,1.42c0,0.78,0.63,1.42,1.42,1.43
	c0,0,0.01,0,0.01,0h16.41c0.78,0,1.42-0.64,1.42-1.43C34.69,73.03,34.05,72.4,33.27,72.4L33.27,72.4z M92.45,68.13
	c0,12.72-10.32,23.04-23.04,23.04S46.37,80.86,46.37,68.13s10.32-23.04,23.04-23.04c0,0,0,0,0,0
	C82.13,45.11,92.44,55.42,92.45,68.13L92.45,68.13z M85.98,79.34l-0.95-0.47c-0.7-0.44-0.91-1.35-0.47-2.05
	c0.44-0.7,1.35-0.91,2.05-0.47l0.95,0.47c1.11-2.27,1.75-4.74,1.89-7.26h-1.1c-0.78,0-1.42-0.64-1.42-1.43
	c0-0.78,0.63-1.41,1.42-1.42h1.1c-0.14-2.52-0.79-4.99-1.89-7.26l-0.95,0.47c-0.24,0.14-0.52,0.2-0.79,0.16
	c-0.52-0.04-1-0.34-1.26-0.79c-0.41-0.7-0.2-1.6,0.47-2.05l0.95-0.47c-1.42-2.13-3.24-3.95-5.37-5.37l-0.47,0.95
	c-0.27,0.45-0.74,0.75-1.26,0.79c-0.27,0.02-0.55-0.03-0.79-0.16c-0.69-0.44-0.9-1.35-0.47-2.05l0.47-0.95
	c-2.27-1.11-4.74-1.75-7.26-1.89v1.1c0,0.78-0.63,1.42-1.42,1.43c-0.78,0-1.42-0.63-1.43-1.42c0,0,0-0.01,0-0.01v-1.1
	c-2.52,0.14-4.99,0.79-7.26,1.89l0.47,0.95c0.41,0.7,0.2,1.6-0.47,2.05c-0.24,0.14-0.52,0.2-0.79,0.16c-0.52-0.04-1-0.34-1.26-0.79
	l-0.47-0.95c-2.13,1.42-3.95,3.24-5.37,5.37l0.95,0.47c0.69,0.44,0.9,1.35,0.47,2.05C54,59.75,53.52,60.05,53,60.09
	c-0.27,0.02-0.55-0.03-0.79-0.16l-0.95-0.47c-1.11,2.27-1.75,4.74-1.89,7.26h1.1c0.78,0,1.42,0.64,1.42,1.43
	c0,0.78-0.63,1.41-1.42,1.42h-1.1c0.14,2.52,0.79,4.99,1.89,7.26l0.95-0.47c0.7-0.44,1.62-0.22,2.05,0.47
	c0.44,0.7,0.22,1.62-0.47,2.05l-0.95,0.47c1.42,2.13,3.24,3.95,5.37,5.37l0.47-0.95c0.44-0.7,1.35-0.91,2.05-0.47
	c0.7,0.44,0.91,1.35,0.47,2.05l-0.47,0.95c2.27,1.11,4.74,1.75,7.26,1.89v-1.1c0-0.78,0.63-1.42,1.42-1.43
	c0.78,0,1.42,0.63,1.43,1.42c0,0,0,0.01,0,0.01v1.1c2.52-0.14,4.99-0.79,7.26-1.89l-0.47-0.95c-0.44-0.7-0.22-1.62,0.47-2.05
	c0.7-0.44,1.62-0.22,2.05,0.47l0.47,0.95C82.78,83.33,84.61,81.5,85.98,79.34L85.98,79.34z M79.67,73.97
	c-0.27,0.45-0.74,0.75-1.26,0.79c-0.27,0.02-0.55-0.03-0.79-0.16l-5.21-3c-0.79,0.68-1.79,1.08-2.84,1.1
	c-2.44,0-4.42-1.98-4.42-4.42c0.03-1.9,1.22-3.59,3-4.26v-9.47c0-0.78,0.63-1.42,1.42-1.43c0.78,0,1.42,0.63,1.43,1.42
	c0,0,0,0.01,0,0.01v9.47c1.81,0.63,3.02,2.34,3,4.26v0.79l5.21,3C79.81,72.5,80.02,73.31,79.67,73.97L79.67,73.97z M70.83,68.13
	c0-0.78-0.64-1.42-1.42-1.42c-0.78,0-1.42,0.64-1.42,1.42c0,0.78,0.64,1.42,1.42,1.42l0,0C70.2,69.55,70.83,68.92,70.83,68.13
	C70.83,68.13,70.83,68.13,70.83,68.13L70.83,68.13z M69.41,97.17H5.18c-0.78,0-1.42-0.64-1.42-1.42V4.06c0-0.78,0.64-1.42,1.42-1.42
	h45.92c0.42-0.01,0.82,0.16,1.1,0.47l18.15,18.94c0.28,0.24,0.45,0.58,0.47,0.95v16.25C86.82,40,99.17,53.56,98.42,69.55
	C97.7,85.04,84.92,97.21,69.41,97.17L69.41,97.17z M51.9,6.75v14.68h14.04L51.9,6.75z M6.76,94.17h49.87
	c-14.4-7.06-20.35-24.45-13.29-38.85c4.65-9.49,14.1-15.71,24.66-16.22V24.42H50.47c-0.78,0-1.42-0.64-1.42-1.42V5.48H6.76
	L6.76,94.17L6.76,94.17z M95.45,68.13c0-14.38-11.66-26.04-26.04-26.04S43.37,53.75,43.37,68.13s11.66,26.04,26.04,26.04
	C83.79,94.16,95.44,82.51,95.45,68.13L95.45,68.13z"/>
</svg>
