<?xml version="1.0" encoding="utf-8"?>
<!-- Generator: Adobe Illustrator 25.4.1, SVG Export Plug-In . SVG Version: 6.00 Build 0)  -->
<svg version="1.1" id="Layer_1" xmlns="http://www.w3.org/2000/svg" xmlns:xlink="http://www.w3.org/1999/xlink" x="0px" y="0px"
	 viewBox="0 0 512 512" style="enable-background:new 0 0 512 512;" xml:space="preserve">
<g>
	<path d="M304.4,230.2h-29.1c-0.9-10.7-10.2-18.6-20.9-17.7c-9.4,0.8-16.9,8.3-17.7,17.7h-6.5c-0.9,0-1.6,0.7-1.6,1.6v26.7l-5.5,5.6
		h-15.5c-0.9,0-1.6,0.7-1.6,1.6v27.4c0,0.9,0.7,1.6,1.6,1.6h15.5l2.8,2.8c0.3,0.3,0.7,0.5,1.1,0.5h1.6v8.1c0,0.9,0.7,1.6,1.6,1.6
		h74.2c0.9,0,1.6-0.7,1.6-1.6v-74.2C306,230.9,305.3,230.2,304.4,230.2z M277,233.4v27.9l-8.9-5.1c-0.5-0.3-1.1-0.3-1.6,0l-8.9,5.1
		v-10.2c9.4-0.8,16.9-8.3,17.7-17.7H277z M256,215.6c8.9,0,16.1,7.2,16.1,16.1c0,8.9-7.2,16.1-16.1,16.1c-8.9,0-16.1-7.2-16.1-16.1
		C239.9,222.9,247.1,215.7,256,215.6z M209.2,267.3h14.5c0.4,0,0.8-0.2,1.1-0.5l3.7-3.7v3.5l-5.5,5.6h-13.8V267.3z M227.6,294.7
		l-2.8-2.8c-0.3-0.3-0.7-0.5-1.1-0.5h-14.5v-16.1h14.5c0.4,0,0.8-0.2,1.1-0.5l10.8-10.9c0.6-0.6,1.7-0.6,2.3,0
		c0.6,0.6,0.6,1.6,0,2.3c0,0,0,0,0,0c0,0,0,0,0,0l-2.9,3.1c-0.6,0.6-0.6,1.7,0.1,2.3c0.3,0.3,0.7,0.4,1.1,0.4h18.3
		c0.9,0,1.6,0.7,1.6,1.6s-0.7,1.6-1.6,1.6h-12.9c-0.9,0-1.6,0.7-1.6,1.6c0,0.9,0.7,1.6,1.6,1.6h19.4c0.9,0,1.6,0.7,1.6,1.6
		c0,0,0,0,0,0c0,0.9-0.7,1.6-1.6,1.6h-19.4c-0.9,0-1.6,0.7-1.6,1.6s0.7,1.6,1.6,1.6h12.9c0.9,0,1.6,0.7,1.6,1.6s-0.7,1.6-1.6,1.6
		h-12.9c-0.9,0-1.6,0.7-1.6,1.6s0.7,1.6,1.6,1.6h9.7c0.9,0,1.6,0.7,1.6,1.6c0,0.9-0.7,1.6-1.6,1.6H227.6z M302.8,304.4h-71v-6.5
		h19.4c2.7,0,4.8-2.2,4.8-4.8c0-0.6-0.1-1.2-0.3-1.8c2.6-0.7,4.1-3.4,3.4-5.9c0-0.1-0.1-0.2-0.1-0.3h1.9c2.7,0,4.8-2.2,4.8-4.8
		c0-2.7-2.2-4.8-4.8-4.8h-1.9c0.9-2.5-0.4-5.3-3-6.2c-0.5-0.2-1.1-0.3-1.6-0.3h-14.5l0.3-0.4c1.9-1.9,1.8-5-0.1-6.8
		c-1.9-1.8-4.9-1.8-6.8,0l-1.5,1.6v-29.9h4.9c0.8,9.4,8.3,16.9,17.7,17.7v13c0,0.9,0.7,1.6,1.6,1.6c0.3,0,0.6-0.1,0.8-0.2l10.5-6
		l10.5,6c0.8,0.4,1.8,0.2,2.2-0.6c0.1-0.2,0.2-0.5,0.2-0.8v-30.6h22.6V304.4z"/>
	<path d="M277,286.6c-0.9,0-1.6,0.7-1.6,1.6v11.3c0,0.9,0.7,1.6,1.6,1.6h21c0.9,0,1.6-0.7,1.6-1.6v-11.3c0-0.9-0.7-1.6-1.6-1.6H277z
		 M296.3,297.9h-17.7v-8.1h17.7V297.9z"/>
	<path d="M247,234.7l6.5,4.8c0.7,0.5,1.6,0.4,2.2-0.2l11.3-12.9c0.6-0.7,0.5-1.7-0.2-2.3c-0.7-0.6-1.7-0.5-2.3,0.2l0,0L254.2,236
		l-5.3-3.9c-0.7-0.5-1.7-0.4-2.3,0.3C246.1,233.1,246.3,234.1,247,234.7z"/>
</g>
</svg>
