<?xml version="1.0" encoding="utf-8"?>
<!-- Generator: Adobe Illustrator 25.4.1, SVG Export Plug-In . SVG Version: 6.00 Build 0)  -->
<svg version="1.1" id="_x33_0" xmlns="http://www.w3.org/2000/svg" xmlns:xlink="http://www.w3.org/1999/xlink" x="0px" y="0px"
	 viewBox="0 0 512 512" style="enable-background:new 0 0 512 512;" xml:space="preserve">
<style type="text/css">
	.st0{fill:url(#SVGID_1_);}
</style>
<linearGradient id="SVGID_1_" gradientUnits="userSpaceOnUse" x1="-586.8711" y1="725.6758" x2="-586.8711" y2="737.7852" gradientTransform="matrix(8.2581 0 0 -8.2581 5102.4189 6298.6772)">
	<stop  offset="0" style="stop-color:#9F2FFF"/>
	<stop  offset="1" style="stop-color:#0BB1D3"/>
</linearGradient>
<path class="st0" d="M246.3,286.6c2.7,0,4.8-2.2,4.8-4.8c0-2.7-2.2-4.8-4.8-4.8s-4.8,2.2-4.8,4.8
	C241.5,284.5,243.7,286.6,246.3,286.6z M246.3,280.2c0.9,0,1.6,0.7,1.6,1.6s-0.7,1.6-1.6,1.6c-0.9,0-1.6-0.7-1.6-1.6
	S245.4,280.2,246.3,280.2z M275.4,286.6c2.7,0,4.8-2.2,4.8-4.8c0-2.7-2.2-4.8-4.8-4.8c-2.7,0-4.8,2.2-4.8,4.8
	C270.5,284.5,272.7,286.6,275.4,286.6z M275.4,280.2c0.9,0,1.6,0.7,1.6,1.6s-0.7,1.6-1.6,1.6s-1.6-0.7-1.6-1.6
	S274.5,280.2,275.4,280.2z M301.2,212.5h-4.8v-3.2h-3.2v3.2h-9.7v-3.2h-3.2v3.2h-9.7v-3.2h-3.2v3.2h-9.7v-3.2h-3.2v3.2h-12.3
	c-3.8-4-9.2-6.5-15.1-6.5c-11.6,0-21,9.4-21,21c0,7.4,3.9,13.9,9.7,17.6v56.6c0,2.7,2.2,4.8,4.8,4.8h80.6c2.7,0,4.8-2.2,4.8-4.8
	v-83.9C306,214.6,303.8,212.5,301.2,212.5z M254.4,215.7v3.5c-1.9,0.7-3.2,2.4-3.2,4.5c0,2.7,2.2,4.8,4.8,4.8c2.7,0,4.8-2.2,4.8-4.8
	c0-2.1-1.4-3.9-3.2-4.5v-3.5h9.7v3.5c-1.9,0.7-3.2,2.4-3.2,4.5c0,2.7,2.2,4.8,4.8,4.8c2.7,0,4.8-2.2,4.8-4.8c0-2.1-1.4-3.9-3.2-4.5
	v-3.5h9.7v3.5c-1.9,0.7-3.2,2.4-3.2,4.5c0,2.7,2.2,4.8,4.8,4.8c2.7,0,4.8-2.2,4.8-4.8c0-2.1-1.4-3.9-3.2-4.5v-3.5h9.7v3.5
	c-1.9,0.7-3.2,2.4-3.2,4.5c0,2.7,2.2,4.8,4.8,4.8c2.7,0,4.8-2.2,4.8-4.8c0-2.1-1.4-3.9-3.2-4.5v-3.5h4.8c0.9,0,1.6,0.7,1.6,1.6v14.5
	h-55.4c0.4-1.6,0.6-3.2,0.6-4.8c0-4.2-1.2-8-3.3-11.3H254.4z M257.6,223.7c0,0.9-0.7,1.6-1.6,1.6s-1.6-0.7-1.6-1.6s0.7-1.6,1.6-1.6
	S257.6,222.9,257.6,223.7z M270.5,223.7c0,0.9-0.7,1.6-1.6,1.6s-1.6-0.7-1.6-1.6s0.7-1.6,1.6-1.6S270.5,222.9,270.5,223.7z
	 M283.4,223.7c0,0.9-0.7,1.6-1.6,1.6s-1.6-0.7-1.6-1.6s0.7-1.6,1.6-1.6S283.4,222.9,283.4,223.7z M296.3,223.7
	c0,0.9-0.7,1.6-1.6,1.6s-1.6-0.7-1.6-1.6s0.7-1.6,1.6-1.6S296.3,222.9,296.3,223.7z M209.2,227c0-9.8,8-17.7,17.7-17.7
	s17.7,8,17.7,17.7c0,9.8-8,17.7-17.7,17.7C217.2,244.7,209.2,236.8,209.2,227z M225.4,247.9c0.5,0,1.1,0.1,1.6,0.1
	c1.7,0,3.3-0.2,4.9-0.6c0,0.2-0.1,0.4-0.1,0.6v25.8c-1.8,0-3.2,1.4-3.2,3.2v3.2c0,1.8,1.4,3.2,3.2,3.2h3.4c0.8,5.5,5.5,9.7,11.2,9.7
	c5.7,0,10.4-4.2,11.2-9.7h6.7c0.8,5.5,5.5,9.7,11.2,9.7c5.7,0,10.4-4.2,11.2-9.7h3.4c1.8,0,3.2-1.5,3.2-3.3v-22.5
	c0-3.6-2.9-6.5-6.5-6.5h-12.9v-3.2c0-1.8-1.4-3.2-3.2-3.2h-32.4c1.5-0.9,2.8-2,4-3.2h54.3v54.8h-71V247.9z M251.2,251.2v3.2h-3.2
	v-6.5h9.7v6.5h-3.2v-3.2H251.2z M260.8,257.6v-9.7h9.7v23.7c-1.1,0.5-2.2,1.3-3,2.1h-13.3c-2-2-4.8-3.2-7.9-3.2s-5.8,1.2-7.9,3.2
	H235v-25.8h9.7v9.7H260.8z M273.7,254.4h12.9c1.8,0,3.2,1.4,3.2,3.2H277v9.7h12.9v6.5h-6.6c-2-2-4.8-3.2-7.9-3.2
	c-0.5,0-1.1,0.1-1.6,0.1V254.4z M286.5,280.2c-0.2-1.1-0.5-2.2-1-3.2h4.3v3.2H286.5z M264.2,280.2h-6.7c-0.2-1.1-0.5-2.2-1-3.2h8.7
	C264.7,278,264.4,279.1,264.2,280.2z M235.2,280.2h-3.4V277h4.3C235.7,278,235.3,279.1,235.2,280.2z M246.3,273.7
	c4.4,0,8.1,3.6,8.1,8.1c0,4.4-3.6,8.1-8.1,8.1s-8.1-3.6-8.1-8.1C238.3,277.4,241.9,273.7,246.3,273.7z M275.4,273.7
	c4.4,0,8.1,3.6,8.1,8.1c0,4.4-3.6,8.1-8.1,8.1s-8.1-3.6-8.1-8.1C267.3,277.4,270.9,273.7,275.4,273.7z M289.9,264.1h-9.7v-3.2h9.7
	V264.1z M301.2,302.8h-80.6c-0.9,0-1.6-0.7-1.6-1.6v-54.8c1,0.4,2.1,0.8,3.2,1v52.2h77.4v-61.3h-54.9c0.7-1,1.2-2.1,1.7-3.2h56.5
	v66.1C302.8,302.1,302.1,302.8,301.2,302.8z M231.5,228.6h3.5v-3.2h-3.5c-0.5-1.4-1.6-2.4-2.9-2.9v-3.5h-3.2v3.5
	c-1.9,0.7-3.2,2.4-3.2,4.5c0,2.7,2.2,4.8,4.8,4.8C229.1,231.8,230.8,230.5,231.5,228.6z M225.4,227c0-0.9,0.7-1.6,1.6-1.6
	s1.6,0.7,1.6,1.6c0,0.9-0.7,1.6-1.6,1.6S225.4,227.9,225.4,227z M241.5,227c0-8-6.5-14.5-14.5-14.5s-14.5,6.5-14.5,14.5
	s6.5,14.5,14.5,14.5S241.5,235,241.5,227z M215.7,227c0-6.2,5.1-11.3,11.3-11.3c6.2,0,11.3,5.1,11.3,11.3c0,6.2-5.1,11.3-11.3,11.3
	C220.7,238.3,215.7,233.2,215.7,227z"/>
</svg>
