<?xml version="1.0" encoding="utf-8"?>
<!-- Generator: Adobe Illustrator 25.2.0, SVG Export Plug-In . SVG Version: 6.00 Build 0)  -->
<svg version="1.1" id="Layer_1" xmlns="http://www.w3.org/2000/svg" xmlns:xlink="http://www.w3.org/1999/xlink" x="0px" y="0px"
	 viewBox="0 0 100 100" style="enable-background:new 0 0 100 100;" xml:space="preserve">
<style type="text/css">
	.st0{fill:url(#Path_10097_1_);}
	.st1{fill:url(#Path_10096_1_);}
	.st2{fill:url(#Path_10098_1_);}
</style>
<linearGradient id="Path_10097_1_" gradientUnits="userSpaceOnUse" x1="15.8102" y1="74.7914" x2="17.4072" y2="74.7914" gradientTransform="matrix(19.1357 0 0 -14.5 -236.4196 1155.562)">
	<stop  offset="0" style="stop-color:#4F536D"/>
	<stop  offset="1" style="stop-color:#ECA570"/>
</linearGradient>
<path id="Path_10097" class="st0" d="M63.71,59.86c-1.22,0.14-2.1,1.25-1.96,2.48v17.5c-0.14,1.22,0.73,2.33,1.96,2.48h25.7
	c1.22-0.14,2.1-1.25,1.96-2.48v-17.5c0.14-1.22-0.73-2.33-1.96-2.48H63.71z M87.32,77.36H65.66V64.81h21.66V77.36z"/>
<linearGradient id="Path_10096_1_" gradientUnits="userSpaceOnUse" x1="5.5343" y1="94.1196" x2="7.1313" y2="94.1196" gradientTransform="matrix(60.0018 0 0 -57.1574 -315.0019 5427.8984)">
	<stop  offset="0" style="stop-color:#4F536D"/>
	<stop  offset="1" style="stop-color:#ECA570"/>
</linearGradient>
<path id="Path_10096" class="st1" d="M94.76,20.51H67.72C66.89,10.6,58.19,3.24,48.29,4.07c-8.76,0.73-15.72,7.68-16.45,16.45H25.8
	c-0.81-0.01-1.48,0.64-1.49,1.45c0,0.01,0,0.02,0,0.04v24.82l-5.11,5.2H4.8c-0.81-0.01-1.48,0.64-1.49,1.45c0,0.01,0,0.02,0,0.04
	v25.47c-0.01,0.81,0.64,1.48,1.45,1.49c0.01,0,0.02,0,0.04,0H19.2l2.6,2.6c0.27,0.28,0.63,0.45,1.02,0.46h1.49v7.53
	c-0.01,0.81,0.64,1.48,1.45,1.49c0.01,0,0.02,0,0.04,0h68.96c0.81,0.01,1.48-0.64,1.49-1.45c0-0.01,0-0.02,0-0.04V22.09
	c0.05-0.82-0.58-1.53-1.4-1.58C94.82,20.51,94.79,20.51,94.76,20.51z M69.3,23.49v25.93l-8.27-4.74c-0.46-0.28-1.03-0.28-1.49,0
	l-8.27,4.74v-9.48c8.75-0.76,15.69-7.7,16.45-16.45L69.3,23.49z M49.78,6.94c8.26,0,14.96,6.7,14.96,14.96
	c0,8.26-6.7,14.96-14.96,14.96c-8.26,0-14.96-6.7-14.96-14.96C34.81,13.65,41.5,6.95,49.76,6.94C49.77,6.94,49.77,6.94,49.78,6.94z
	 M6.28,54.99h13.48c0.39-0.02,0.76-0.18,1.02-0.46l3.44-3.44v3.25l-5.11,5.2H6.28V54.99z M23.38,80.46l-2.6-2.6
	c-0.27-0.28-0.63-0.45-1.02-0.46H6.28V62.43h13.48c0.39-0.02,0.76-0.18,1.02-0.46l10.04-10.13c0.6-0.58,1.56-0.56,2.14,0.04
	c0.56,0.59,0.56,1.51,0,2.1l0,0l-2.7,2.88c-0.57,0.6-0.54,1.54,0.06,2.11c0.01,0.01,0.02,0.02,0.03,0.03
	c0.28,0.26,0.65,0.39,1.02,0.37h17.01c0.82,0,1.49,0.67,1.49,1.49c0,0.82-0.67,1.48-1.49,1.49H36.4c-0.82,0-1.49,0.66-1.49,1.49
	c0,0.82,0.66,1.49,1.49,1.49c0,0,0,0,0,0h18.03c0.81-0.01,1.48,0.64,1.49,1.45c0,0.01,0,0.02,0,0.04l0,0
	c0.01,0.81-0.64,1.48-1.45,1.49c-0.01,0-0.02,0-0.04,0H36.4c-0.82,0-1.49,0.66-1.49,1.49c0,0.82,0.66,1.49,1.49,1.49c0,0,0,0,0,0
	h11.99c0.82,0,1.49,0.67,1.49,1.49c0,0.82-0.67,1.48-1.49,1.49H36.4c-0.82,0-1.49,0.67-1.49,1.49c0,0.82,0.67,1.49,1.49,1.49l0,0
	h9.02c0.82,0,1.49,0.67,1.49,1.49c0,0.82-0.67,1.49-1.49,1.49H23.38L23.38,80.46z M93.28,89.47H27.29v-6.04h18.03
	c2.46,0,4.46-2,4.46-4.46c0-0.57-0.1-1.13-0.28-1.67c2.39-0.64,3.8-3.1,3.16-5.48c0-0.09-0.09-0.19-0.09-0.28h1.77
	c2.46,0,4.46-1.99,4.47-4.45c0-2.46-1.99-4.46-4.45-4.47c0,0-0.01,0-0.01,0h-1.77c0.83-2.34-0.39-4.91-2.72-5.74
	c-0.02-0.01-0.04-0.02-0.07-0.02c-0.47-0.18-0.98-0.28-1.49-0.28H34.82l0.28-0.37c1.72-1.74,1.7-4.55-0.04-6.27
	c-0.02-0.02-0.04-0.04-0.05-0.05c-1.77-1.67-4.55-1.67-6.32,0l-1.39,1.49V23.58h4.55c0.76,8.75,7.7,15.69,16.45,16.45v12.08
	c-0.01,0.81,0.64,1.48,1.45,1.49c0.01,0,0.02,0,0.04,0c0.26-0.01,0.51-0.07,0.74-0.19l9.76-5.58l9.76,5.58
	c0.72,0.41,1.63,0.16,2.04-0.55c0,0,0,0,0-0.01c0.12-0.23,0.18-0.48,0.19-0.74V23.67h21L93.28,89.47z"/>
<linearGradient id="Path_10098_1_" gradientUnits="userSpaceOnUse" x1="18.7501" y1="67.2647" x2="20.3471" y2="67.2647" gradientTransform="matrix(15.4412 0 0 -10.6951 -248.1576 741.6154)">
	<stop  offset="0" style="stop-color:#4F536D"/>
	<stop  offset="1" style="stop-color:#ECA570"/>
</linearGradient>
<path id="Path_10098" class="st2" d="M38.58,25.24l7.38,4.94c0.78,0.51,1.81,0.42,2.5-0.21L61.3,16.7c0.6-0.61,0.59-1.59-0.02-2.19
	c-0.07-0.06-0.14-0.12-0.21-0.17c-0.8-0.61-1.92-0.52-2.61,0.21l0,0l-11.7,12.03l-6.02-4.01c-0.83-0.52-1.92-0.4-2.61,0.31
	c-0.53,0.76-0.35,1.8,0.41,2.33C38.55,25.22,38.57,25.23,38.58,25.24z"/>
</svg>
