<?xml version="1.0" encoding="utf-8"?>
<!-- Generator: Adobe Illustrator 25.2.0, SVG Export Plug-In . SVG Version: 6.00 Build 0)  -->
<svg version="1.1" id="Capa_1" xmlns="http://www.w3.org/2000/svg" xmlns:xlink="http://www.w3.org/1999/xlink" x="0px" y="0px"
	 viewBox="0 0 512 250.6" style="enable-background:new 0 0 512 250.6;" xml:space="preserve">
<style type="text/css">
	.st0{fill:#040202;}
</style>
<g>
	<g>
		<path class="st0" d="M481.9,10.9H186.5c-12.4,0-22.3,9.9-22.3,22.3v186.2c0,12.4,9.9,22.3,22.3,22.3h295.4
			c12.4,0,22.3-9.9,22.3-22.3V33.3C504.2,20.9,494.3,10.9,481.9,10.9z M186.5,25.8h295.4c2.5,0,7.4,2.5,7.4,5l-126.6,99.3
			c-17.4,12.4-39.7,12.4-54.6,0L181.5,30.8C179.1,28.3,181.5,25.8,186.5,25.8z M489.3,207l-81.9-62c-2.5-2.5-7.4-2.5-9.9,2.5
			c-2.5,2.5-2.5,7.4,2.5,9.9l89.4,69.5c0,2.5-5,5-7.4,5H186.5c-2.5,0-7.4-2.5-7.4-5l89.4-69.5c2.5-2.5,5-7.4,2.5-9.9s-7.4-5-9.9-2.5
			l-82,62V50.6l119.1,91.8c9.9,7.4,24.8,12.4,37.2,12.4c12.4,0,24.8-5,37.2-12.4l119.1-91.8V207H489.3z"/>
	</g>
</g>
<g>
	<g>
		<path class="st0" d="M139.3,142.5H45c-5,0-7.4,2.5-7.4,7.4s2.5,7.4,7.4,7.4h94.3c5,0,7.4-2.5,7.4-7.4S144.3,142.5,139.3,142.5z"/>
	</g>
</g>
<g>
	<g>
		<path class="st0" d="M139.3,182.2H15.2c-5,0-7.4,2.5-7.4,7.4c0,5,2.5,7.4,7.4,7.4h124.1c5,0,7.4-2.5,7.4-7.4
			C146.8,184.7,144.3,182.2,139.3,182.2z"/>
	</g>
</g>
<g>
	<g>
		<path class="st0" d="M139.3,105.3h-62c-5,0-7.4,2.5-7.4,7.4c0,5,2.5,7.4,7.4,7.4h62c5,0,7.4-2.5,7.4-7.4
			C146.8,107.7,144.3,105.3,139.3,105.3z"/>
	</g>
</g>
<g>
	<g>
		<path class="st0" d="M139.3,65.5H107c-5,0-7.4,2.5-7.4,7.4c0,5,2.5,7.4,7.4,7.4h32.3c5,0,7.4-2.5,7.4-7.4
			C146.8,68,144.3,65.5,139.3,65.5z"/>
	</g>
</g>
</svg>
