<?xml version="1.0" encoding="utf-8"?>
<!-- Generator: Adobe Illustrator 25.2.0, SVG Export Plug-In . SVG Version: 6.00 Build 0)  -->
<svg version="1.1" id="Layer_1" xmlns="http://www.w3.org/2000/svg" xmlns:xlink="http://www.w3.org/1999/xlink" x="0px" y="0px"
	 viewBox="0 0 100 100" style="enable-background:new 0 0 100 100;" xml:space="preserve">
<style type="text/css">
	.st0{fill:#FFFFFF;}
</style>
<path class="st0" d="M82.72,6.87c2.51,0.82,5.22,1.28,7.48,2.54c5.32,2.97,7.87,7.87,7.94,13.87c0.13,11.11,0.13,22.22,0.01,33.33
	c-0.11,9.64-7.13,16.24-17.25,16.31c-10.94,0.08-21.88-0.05-32.82,0.09c-1.54,0.02-3.36,0.71-4.55,1.69
	c-7.01,5.84-13.88,11.86-20.79,17.82c-0.46,0.39-0.86,0.97-1.39,1.14c-1.07,0.33-2.54,0.95-3.23,0.51
	c-0.85-0.54-1.52-2.08-1.48-3.16c0.25-5.59,0.75-11.16,1.16-16.74c0.02-0.33,0-0.67,0-1.2c-1.41-0.24-2.77-0.34-4.07-0.7
	C7.5,70.62,3.52,66.63,1.95,60.29c-0.1-0.4-0.31-0.77-0.47-1.16c0-12.76,0-25.53,0-38.29c1.26-4.85,3.46-9.15,8.09-11.51
	c2.3-1.17,4.95-1.66,7.44-2.46C38.91,6.87,60.81,6.87,82.72,6.87z M22.38,85.66c0.96-0.78,1.55-1.23,2.12-1.72
	c5.74-4.95,11.43-9.98,17.27-14.81c1.14-0.94,2.89-1.58,4.37-1.59c11.55-0.13,23.11-0.06,34.66-0.08
	c7.56-0.01,11.86-4.27,11.88-11.83c0.04-10.43,0.04-20.86,0-31.3c-0.03-7.6-4.27-11.8-11.88-11.8c-20.69-0.02-41.38-0.02-62.08,0
	c-7.43,0.01-11.78,4.25-11.82,11.64C6.85,34.68,6.86,45.2,6.93,55.72c0.01,1.69,0.22,3.5,0.86,5.04c1.84,4.38,5.28,6.62,10.09,6.71
	c5.55,0.11,5.6,0.14,5.34,5.74C23.04,77.17,22.7,81.11,22.38,85.66z"/>
<path class="st0" d="M77.61,48.61c1.02,1.33,1.99,2.61,3.25,4.25c-2.7-0.18-5.15,0.9-6.91-1.65c-0.22-0.31-1.26-0.17-1.89-0.07
	c-4.94,0.86-9.53-1.06-11.81-4.97c-2.63-4.52-2.11-11.62,1.12-15.32c2.98-3.41,8.2-4.55,12.8-2.81c6.56,2.49,9.09,11.94,4.95,18.47
	C78.69,47.18,78.2,47.79,77.61,48.61z M73.49,42.79c0.29,0.18,0.59,0.35,0.88,0.53c0-2.18,0.21-4.38-0.06-6.53
	c-0.28-2.21-1.63-3.77-4.03-4.02c-3.12-0.32-5.05,1.83-5.27,5.85c-0.27,4.74,1.14,6.89,4.74,6.97c-0.6-0.98-1.16-1.88-2.02-3.27
	C69.98,42.5,71.74,42.65,73.49,42.79z"/>
<path class="st0" d="M33.78,50.97c1.59-5.09,3.05-9.82,4.55-14.54c0.75-2.37,1.66-4.7,2.29-7.1c0.39-1.47,1.13-1.81,2.55-1.83
	c6.54-0.07,6.54-0.11,8.58,6.24c1.81,5.62,3.65,11.24,5.59,17.22c-1.47,0-2.66-0.12-3.81,0.03c-2.14,0.27-3.45-0.4-3.68-2.7
	c-0.14-1.37-0.95-1.84-2.3-1.71c-1.11,0.11-2.25,0.15-3.35-0.01c-2-0.29-3.1,0.48-3.31,2.46c-0.18,1.67-1.15,2.08-2.67,1.97
	C36.86,50.89,35.5,50.97,33.78,50.97z M47.92,41.76c-0.81-2.65-1.52-4.98-2.24-7.31c-0.18,0.03-0.35,0.07-0.53,0.1
	c-0.65,2.33-1.31,4.67-2.02,7.21C44.86,41.76,46.13,41.76,47.92,41.76z"/>
<path class="st0" d="M34.65,32.66c-3.29,0-6.37,0-9.63,0c0,1.33,0,2.5,0,4.02c2.81,0,5.68,0,8.69,0c0,1.78,0,3.2,0,5.03
	c-2.91,0-5.77,0-8.81,0c0,3.21,0,6.02,0,9.05c-2.11,0-4.03,0-6.12,0c0-7.58,0-15.2,0-23.01c5.23,0,10.51,0,15.87,0
	C34.65,29.34,34.65,30.91,34.65,32.66z"/>
</svg>
