<?xml version="1.0" encoding="utf-8"?>
<!-- Generator: Adobe Illustrator 25.2.0, SVG Export Plug-In . SVG Version: 6.00 Build 0)  -->
<svg version="1.1" id="Capa_1" xmlns="http://www.w3.org/2000/svg" xmlns:xlink="http://www.w3.org/1999/xlink" x="0px" y="0px"
	 viewBox="0 0 495.4 495.4" style="enable-background:new 0 0 495.4 495.4;" xml:space="preserve">
<style type="text/css">
	.st0{fill:#FFFFFF;}
</style>
<g>
	<g>
		<g>
			<path class="st0" d="M477.4,226.4l-72-72V71.2c0-15-12.2-27.2-27.3-27.2c-15,0-27.2,12.2-27.2,27.2v28.7l-53.6-53.6
				c-26.5-26.5-72.6-26.5-99.1,0L18,226.4c-10.6,10.7-10.6,27.9,0,38.5c10.6,10.7,27.9,10.7,38.5,0L236.7,84.8
				c5.9-5.8,16.2-5.8,22,0l180.1,180.1c5.3,5.3,12.3,8,19.3,8c7,0,14-2.7,19.3-8C488,254.3,488,237.1,477.4,226.4z"/>
			<path class="st0" d="M257.2,136.5c-5.2-5.2-13.7-5.2-18.9,0L79.8,294.9c-2.5,2.5-3.9,5.9-3.9,9.5v115.5c0,27.1,22,49.1,49.1,49.1
				h78.4V347.5H292V469h78.4c27.1,0,49.1-22,49.1-49.1V304.4c0-3.6-1.4-7-3.9-9.5L257.2,136.5z"/>
		</g>
	</g>
</g>
</svg>
