<?xml version="1.0" encoding="utf-8"?>
<!-- Generator: Adobe Illustrator 25.2.0, SVG Export Plug-In . SVG Version: 6.00 Build 0)  -->
<svg version="1.1" id="Layer_1" xmlns="http://www.w3.org/2000/svg" xmlns:xlink="http://www.w3.org/1999/xlink" x="0px" y="0px"
	 viewBox="0 0 100 100" style="enable-background:new 0 0 100 100;" xml:space="preserve">
<style type="text/css">
	.st0{fill:#FFFFFF;}
</style>
<path class="st0" d="M47.13,2.4c2.42,0,4.84,0,7.25,0c0.47,0.12,0.94,0.29,1.42,0.36c20,2.68,33.45,13.61,40.36,32.47
	c1.35,3.67,1.75,7.69,2.59,11.55c0,2.42,0,4.84,0,7.25c-0.13,0.54-0.31,1.08-0.37,1.63c-1.81,18.7-15.43,35.22-33.66,40.59
	c-3.37,0.99-6.89,1.45-10.35,2.15c-2.42,0-4.84,0-7.25,0c-1.04-0.16-2.09-0.29-3.13-0.47c-19.68-3.57-32.89-14.7-39.13-33.77
	c-1.07-3.26-1.43-6.75-2.12-10.13c0-2.42,0-4.84,0-7.25c0.12-0.54,0.29-1.08,0.36-1.63c2.76-19.9,13.65-33.3,32.46-40.16
	C39.26,3.65,43.27,3.24,47.13,2.4z M93.93,50.52C93.89,26.75,74.45,7.2,50.91,7.24C27.09,7.28,7.61,26.6,7.58,50.2
	C7.56,74.16,26.98,93.6,50.91,93.58C74.41,93.55,93.96,73.99,93.93,50.52z"/>
<path class="st0" d="M44.21,38.72c4.4,0,8.65,0,13.04,0c0,14.37,0,28.69,0,43.15c-4.28,0-8.58,0-13.04,0
	C44.21,67.54,44.21,53.24,44.21,38.72z"/>
<path class="st0" d="M50.62,33.21c-4.14-0.01-6.94-2.72-6.94-6.69c0.01-3.98,2.92-6.68,7.2-6.66c4.11,0.02,6.94,2.73,6.95,6.69
	C57.85,30.52,54.92,33.23,50.62,33.21z"/>
</svg>
