<?xml version="1.0" encoding="utf-8"?>
<!-- Generator: Adobe Illustrator 25.2.0, SVG Export Plug-In . SVG Version: 6.00 Build 0)  -->
<svg version="1.1" id="Capa_1" xmlns="http://www.w3.org/2000/svg" xmlns:xlink="http://www.w3.org/1999/xlink" x="0px" y="0px"
	 viewBox="0 0 186.6 165" style="enable-background:new 0 0 186.6 165;" xml:space="preserve">
<style type="text/css">
	.st0{fill:#FFFFFF;}
</style>
<g>
	<g>
		<path class="st0" d="M172.5,7.4H15.1c-6,0-10.7,4.8-10.7,10.7v106.7c0,6,4.8,10.7,10.7,10.7h53l-2.4,17.3h-8.9
			c-1.2,0-2.4,1.2-2.4,2.4c0,1.2,1.2,2.4,2.4,2.4h72.7c1.2,0,2.4-1.2,2.4-2.4c0-1.2-1.2-2.4-2.4-2.4h-8.9l-2.4-17.3h53
			c6,0,10.7-4.8,10.7-10.7V18.7C183.2,12.8,178.5,7.4,172.5,7.4z M71.8,153.4l2.4-17.3h9.5l1.2,3.6c1.2,4.2,4.8,7.2,9.5,7.2
			s8.3-3,9.5-7.2l1.2-3.6h9.5l2.4,17.3H71.8z M89.1,136.1h10.1l-0.6,2.4c-0.6,1.8-2.4,3.6-4.2,3.6c-2.4,0-4.2-1.2-4.2-3.6
			L89.1,136.1z M177.9,124.8L177.9,124.8c0,3-2.4,6-6,6H15.1c-3,0-6-2.4-6-6V18.7c0-3,2.4-6,6-6h156.8c3,0,6,2.4,6,6V124.8
			L177.9,124.8z"/>
	</g>
</g>
<g>
	<g>
		<path class="st0" d="M151.9,24.4H32.8c-1.1,0-2.1,1.1-2.1,2.1v89.1c0,1.1,1.1,2.1,2.1,2.1h4.7c1.1,0,2.1-1.1,2.1-2.1
			s-1.1-2.1-2.1-2.1h-2.6V29.2h116.5c1.1,0,2.1-1.1,2.1-2.1C154,25.5,152.9,24.4,151.9,24.4z"/>
	</g>
</g>
<g>
	<g>
		<path class="st0" d="M151.9,24.7h-4.7c-1.1,0-2.1,1.1-2.1,2.1c0,1.1,1.1,2.1,2.1,2.1h2.6v84.3h-117c-1.1,0-2.1,1.1-2.1,2.1
			s1.1,2.1,2.1,2.1h118.6c1.1,0,2.1-1.1,2.1-2.1v-88C154,25.8,152.9,24.7,151.9,24.7z"/>
	</g>
</g>
<g>
	<g>
		<path class="st0" d="M126.1,49.9c-0.5-0.5-1.1-1.1-1.6-1.1l-54.3-2.6l0,0c-0.5-1.1-1.1-2.1-2.1-2.6l-6.9-4.2
			c-1.1-0.5-2.6-0.5-3.2,0.5c-0.5,1.1-0.5,2.6,0.5,3.2l6.9,4.2l0,0l8.4,29.5c0.5,1.1,0.5,1.6,1.1,2.6l-3.2,6.9
			c-0.5,1.6-0.5,3.2,0,4.7c0.5,0.5,0.5,1.1,1.1,1.1c-0.5,1.1-1.1,2.1-1.1,3.7c0,4.2,3.2,7.4,7.4,7.4s7.4-3.2,7.4-7.4
			c0-1.1,0-1.6-0.5-2.6h21.1c-0.5,1.1-0.5,1.6-0.5,2.6c0,4.2,3.2,7.4,7.4,7.4s7.4-3.2,7.4-7.4c0-1.1-0.5-2.1-0.5-3.2
			c0.5-0.5,0.5-1.1,0.5-1.6c0-1.1-1.1-2.1-2.1-2.1H76l0,0l0,0l2.6-5.8c0.5,0,1.1,0,1.6,0c0.5,0,0.5,0,1.1,0l32.7-3.7
			c4.2-0.5,7.4-3.7,8.4-7.9l3.7-19.5C126.6,51,126.6,50.4,126.1,49.9z M114.5,93.1c1.6,0,2.6,1.1,2.6,2.6s-1.1,2.6-2.6,2.6
			s-2.6-1.1-2.6-2.6S112.9,93.1,114.5,93.1z M79.7,93.1c1.6,0,2.6,1.1,2.6,2.6s-1.1,2.6-2.6,2.6s-2.6-1.1-2.6-2.6
			S78.1,93.1,79.7,93.1z M73.9,61.5l-3.2-10l9.5,0.5l1.6,9.5H73.9z M81.3,78.4c-1.1,0-2.6-0.5-2.6-2.1l-3.2-10.5h7.4L85,77.3
			L81.3,78.4z M94.5,76.8l-5.3,0.5l-2.1-11.1h7.4V76.8z M94.5,61.5h-7.9L85,52l9.5,0.5V61.5z M106.6,75.2l-6.9,1.1v-10h7.9
			L106.6,75.2z M107.6,61.5h-8.4v-9l9,0.5L107.6,61.5z M118.2,70.5c-0.5,2.1-2.1,3.7-4.2,4.2l-2.6,0.5l0.5-8.4h6.9L118.2,70.5z
			 M119.8,61.5h-7.4l0.5-8.4l8.4,0.5L119.8,61.5z"/>
	</g>
</g>
</svg>
