<?xml version="1.0" encoding="utf-8"?>
<!-- Generator: Adobe Illustrator 25.2.0, SVG Export Plug-In . SVG Version: 6.00 Build 0)  -->
<svg version="1.1" id="Capa_1" xmlns="http://www.w3.org/2000/svg" xmlns:xlink="http://www.w3.org/1999/xlink" x="0px" y="0px"
	 viewBox="0 0 512 512" style="enable-background:new 0 0 512 512;" xml:space="preserve">
<style type="text/css">
	.st0{fill:#FFFFFF;}
</style>
<g>
	<g>
		<path class="st0" d="M443.4,259.5l29-29c52.8-52.8,52.8-138.1,0-190.9c-52.8-52.8-138.1-52.8-190.9,0
			c-11.3,11.3-231.8,231.8-242,242c-52.8,52.8-52.8,138.1,0,190.9c52.8,52.8,138.1,52.8,190.9,0l29-29
			C282.7,484.3,326.7,512,377,512c74.4,0,135-60.6,135-135C512,326.7,484.3,282.7,443.4,259.5z M242,377c0,12.6,1.8,24.9,5,36.5
			l-37.8,37.8c-41,41-107.4,41-148.5,0c-41-41-41-107.4,0-148.5l109.5-109.5l100.5,100.5C252.8,316.7,242,345.6,242,377z M362,480.9
			c-50.8-7.3-90-51.1-90-103.9s39.2-96.6,90-103.9V480.9z M291.8,272.4L191.5,172.1L302.7,60.8c41-41,107.4-41,148.5,0
			c41,41,41,107.4,0,148.5L413.5,247c-11.6-3.3-23.8-5-36.5-5C344.7,242,315,253.4,291.8,272.4z M392,480.9V273.1
			c50.8,7.3,90,51.1,90,103.9C482,429.8,442.8,473.6,392,480.9z"/>
	</g>
</g>
</svg>
