<?xml version="1.0" encoding="utf-8"?>
<!-- Generator: Adobe Illustrator 25.2.0, SVG Export Plug-In . SVG Version: 6.00 Build 0)  -->
<svg version="1.1" id="Layer_1" xmlns="http://www.w3.org/2000/svg" xmlns:xlink="http://www.w3.org/1999/xlink" x="0px" y="0px"
	 viewBox="0 0 512 512" style="enable-background:new 0 0 512 512;" xml:space="preserve">
<style type="text/css">
	.st0{fill:#FFFFFF;}
</style>
<path class="st0" d="M436.3,75.7C387.5,26.9,323.5,0,256,0S124.5,26.9,75.7,75.7S0,188.5,0,256s26.9,131.5,75.7,180.3
	S188.5,512,256,512s131.5-26.9,180.3-75.7S512,323.5,512,256S485.1,124.5,436.3,75.7z M415.1,96.9c85.6,85.6,89.1,217.9,10.3,307.2
	l-25.3-25.3c13.1-17.5,20.9-39.3,20.9-62.9c0-57.9-47.1-105-105-105c-16.1,0-31.4,3.6-45,10.1V166c0-41.4-33.6-75-75-75
	c-22.9,0-43.4,10.3-57.2,26.6l-30.9-30.9C197.2,7.8,329.5,11.3,415.1,96.9z M241,219.8l-80.9-80.9C168.3,128,181.4,121,196,121
	c24.8,0,45,20.2,45,45V219.8z M219.8,241H151v-68.8L219.8,241z M151,270.8h70.1c-6.5,13.6-10.1,29.1-10.1,45.2
	c0,22.2,6.9,42.8,18.7,59.8C221.3,385.3,209,391,196,391c-24.8,0-45-20.2-45-45V270.8z M241,316c0-15.3,4.6-29.5,12.5-41.3
	l103.9,103.9c-11.9,7.9-26.1,12.5-41.3,12.5C274.6,391,241,357.4,241,316z M274.7,253.5c11.9-7.9,26.1-12.5,41.3-12.5
	c41.4,0,75,33.6,75,75c0,15.3-4.6,29.5-12.5,41.3L274.7,253.5z M96.9,415.1C11.3,329.5,7.8,197.2,86.6,107.9l37.3,37.3
	c-1.9,6.6-3,13.6-3,20.8v180c0,41.4,33.6,75,75,75c20.7,0,40.2-8.6,54.2-23.2c18,14.5,40.9,23.2,65.8,23.2
	c23.6,0,45.3-7.8,62.9-20.9l25.3,25.3C314.8,504.2,182.5,500.7,96.9,415.1z"/>
</svg>
