<?xml version="1.0" encoding="utf-8"?>
<!-- Generator: Adobe Illustrator 25.2.0, SVG Export Plug-In . SVG Version: 6.00 Build 0)  -->
<svg version="1.1" id="Layer_1" xmlns="http://www.w3.org/2000/svg" xmlns:xlink="http://www.w3.org/1999/xlink" x="0px" y="0px"
	 viewBox="0 0 512 512" style="enable-background:new 0 0 512 512;" xml:space="preserve">
<path d="M291.1,11c-4.5,0-8.9,4.5-8.9,8.9c0,4.5,4.5,8.9,8.9,8.9c107.2,0,192,84.9,192,192c0,4.5,4.5,8.9,8.9,8.9s8.9-4.5,8.9-8.9
	C501,104.8,407.2,11,291.1,11z"/>
<path d="M434,229.8c4.5,0,8.9-4.5,8.9-8.9C443,136,376,69,291.1,69c-4.5,0-8.9,4.5-8.9,8.9c0,4.5,4.5,8.9,8.9,8.9
	c75.9,0,134,62.5,134,134C425.1,225.3,429.6,229.8,434,229.8z"/>
<path d="M367,220.9c0,4.5,4.5,8.9,8.9,8.9s8.9-4.5,8.9-8.9c0-53.6-44.7-98.3-98.3-98.3c-4.5,0-8.9,4.5-8.9,8.9
	c0,4.5,4.5,8.9,8.9,8.9C331.3,145,367,176.2,367,220.9z"/>
<path d="M277.7,189.6c0,4.5,4.5,8.9,8.9,8.9c8.9,0,17.9,8.9,17.9,17.9c0,4.5,4.5,8.9,8.9,8.9s8.9-4.5,8.9-8.9
	c0-22.3-17.9-40.2-40.2-40.2C282.2,180.7,277.7,185.1,277.7,189.6z"/>
<path d="M188.4,319.1c0,4.5-4.5,8.9-8.9,8.9c-4.5,0-8.9-4.5-8.9-8.9s4.5-8.9,8.9-8.9C183.9,310.2,188.4,314.7,188.4,319.1z"/>
<path d="M273.3,488.8c44.7,22.3,98.3,13.4,129.5-22.3l17.9-17.9c8.9-8.9,8.9-26.8,0-40.2l-75.9-75.9c-8.9-8.9-26.8-8.9-40.2,0
	l-31.3,31.3c-4.5,4.5-17.9,8.9-22.3,4.5c-13.4-8.9-22.3-17.9-35.7-22.3c-4.5-4.5-8.9-4.5-13.4,0c-4.5,4.5-4.5,8.9,0,13.4
	c13.4,8.9,22.3,17.9,35.7,26.8s35.7,8.9,49.1-4.5l31.3-31.3c4.5-4.5,8.9-4.5,13.4,0l75.9,75.9c4.5,4.5,4.5,8.9,0,13.4l-17.9,17.9
	c-26.8,26.8-71.5,35.7-107.2,17.9c-134-67-205.4-169.7-241.2-245.6c-17.9-35.7-8.9-80.4,17.9-107.2l17.9-17.9
	c4.5-4.5,8.9-4.5,13.4,0l75.9,75.9c4.5,4.5,4.5,8.9,0,13.4l-31.3,31.3c-13.4,13.4-13.4,31.3-4.5,49.1c4.5,8.9,13.4,17.9,17.9,26.8
	c4.5,4.5,8.9,4.5,13.4,0c4.5-4.5,4.5-8.9,0-13.4c-4.5-8.9-13.4-17.9-17.9-22.3c-4.5-8.9-4.5-17.9,4.5-22.3l31.3-31.3
	c8.9-8.9,8.9-26.8,0-40.2l-75.9-75.9c-8.9-8.9-26.8-8.9-40.2,0l-17.9,17.9C9.8,149.4,0.8,203,23.2,243.2
	C58.9,314.7,134.8,421.8,273.3,488.8z"/>
</svg>
