<?xml version="1.0" encoding="utf-8"?>
<!-- Generator: Adobe Illustrator 25.2.0, SVG Export Plug-In . SVG Version: 6.00 Build 0)  -->
<svg version="1.1" id="Layer_1" xmlns="http://www.w3.org/2000/svg" xmlns:xlink="http://www.w3.org/1999/xlink" x="0px" y="0px"
	 viewBox="0 0 100 100" style="enable-background:new 0 0 100 100;" xml:space="preserve">
<style type="text/css">
	.st0{fill:#FFFFFF;}
</style>
<path class="st0" d="M27.11,1.33c15.18,0,30.35,0,45.53,0c0.03,0.65,0.05,1.31,0.08,1.96c0,0.66,0,1.33,0,1.99c0,0.65,0,1.31,0,1.96
	c0,0.66,0,1.32,0,1.98c0.05,0.04,0.09,0.09,0.14,0.13c0.62,0,1.24,0,1.85,0c0.66,0,1.31,0,1.97,0c0.4,0,0.79,0,1.19,0
	c0.56,0.01,1.11,0.02,1.67,0.04c0.36,0.04,0.72,0.09,1.08,0.13c0.65,0.24,1.31,0.47,1.96,0.71c1.29,0.72,2.37,1.69,3.19,2.93
	c0.22,0.43,0.44,0.85,0.66,1.28c0.08,0.24,0.15,0.47,0.23,0.71c0.12,0.65,0.23,1.3,0.35,1.95c0,0.66,0.01,1.31,0.01,1.97
	c0,0.66,0,1.31,0,1.97c0,0.66,0,1.31,0,1.97c0,0.66,0,1.31,0,1.97c0,0.66,0,1.31,0,1.97c0,0.66,0,1.31,0,1.97c0,0.66,0,1.31,0,1.97
	c-0.02,0.28-0.03,0.57-0.05,0.87c-0.15,0.02-0.29,0.04-0.43,0.06c-0.66,0-1.32,0-1.98,0c-0.65,0-1.31,0-1.96,0
	c-0.32-0.02-0.63-0.04-0.95-0.06c-0.02-0.32-0.03-0.6-0.04-0.87c0-0.66,0-1.31,0-1.97c0-0.66,0-1.31,0-1.97c0-0.66,0-1.31,0-1.97
	c0-0.66,0-1.31,0-1.97c0-0.66,0-1.31,0-1.97c0-0.66,0-1.31,0-1.97c0.05-0.69-0.02-1.36-0.37-1.98c-0.16-0.26-0.32-0.53-0.48-0.79
	c-0.15-0.17-0.29-0.36-0.45-0.51c-1.03-0.96-2.28-1.13-3.61-1.03c-0.66,0-1.32,0-1.98,0c-0.56,0-1.12,0-1.67-0.02
	c-0.32-0.01-0.36,0.14-0.3,0.39c0,0.66,0,1.31,0,1.97c0,0.66,0,1.31,0,1.97c0,0.66,0,1.31,0,1.97c-0.01,0.58-0.01,1.15-0.02,1.73
	c-0.21,0.01-0.42,0.03-0.64,0.03c-1.75,0.01-3.5,0.02-5.25,0.02c-0.66,0-1.31,0-1.97,0c-1.97,0-3.94,0-5.91,0c-1.97,0-3.94,0-5.91,0
	c-0.46-0.01-0.91-0.02-1.37-0.02c-2.83,0-5.66,0.01-8.48,0.02c-2.66,0-5.32,0-7.98,0c-1.94,0-3.88,0-5.81,0c-0.66,0-1.32,0-1.97,0
	c-0.27,0.02-0.31-0.14-0.31-0.37c0.01-0.47-0.01-0.94-0.01-1.41c0-0.66,0-1.32,0-1.98c0-0.66,0-1.31,0-1.97c0-0.66,0-1.32,0-1.98
	c0-0.12,0-0.24,0-0.37c-0.59,0-1.12,0-1.64,0c-0.66,0-1.32,0-1.98,0c-0.49,0-0.99-0.04-1.47,0c-0.94,0.06-1.79,0.36-2.47,1.05
	c-0.32,0.43-0.64,0.87-0.97,1.3c-0.13,0.66-0.25,1.31-0.38,1.97c0,0.66,0,1.32,0,1.98c0,0.66,0,1.31,0,1.97c0,0.66,0,1.32,0,1.97
	c0,0.66,0,1.31,0,1.97c0,0.66,0,1.32,0,1.98c0,0.66,0,1.31,0,1.97c0,0.66,0,1.32,0,1.98c0,0.66,0,1.31,0,1.97c0,0.66,0,1.32,0,1.98
	c0,0.66,0,1.31,0,1.97c0,0.66,0,1.32,0,1.98c0,0.66,0,1.31,0,1.97c0,0.66,0,1.32,0,1.98c0,0.66,0,1.31,0,1.97c0,0.66,0,1.32,0,1.98
	c0,0.66,0,1.31,0,1.97c0,0.66,0,1.32,0,1.98c0,0.66,0,1.31,0,1.97c0,0.66,0,1.32,0,1.97c0,0.66,0,1.31,0,1.97c0,0.66,0,1.32,0,1.98
	c0,0.66,0,1.31,0,1.97c0,0.66,0,1.32,0,1.98c0,0.66,0,1.31,0,1.97c0,0.66,0,1.32,0,1.98c0,0.66,0,1.31,0,1.97c0,0.66,0,1.32,0,1.98
	c0,0.66,0,1.31,0,1.97c0,0.66,0,1.32,0,1.98c0,0.66,0,1.31,0,1.97c0,0.66,0,1.32,0,1.97c0,0.66,0,1.31,0,1.97c0,0.66,0,1.32,0,1.98
	c0,0.66,0,1.31,0,1.97c0,0.66,0,1.32,0,1.97c0.1,0.66,0.2,1.31,0.3,1.97c0.35,0.49,0.7,0.98,1.05,1.47c0.3,0.2,0.59,0.4,0.88,0.59
	c0.36,0.13,0.72,0.25,1.09,0.38c0.66,0.02,1.31,0.03,1.97,0.05c0.66,0,1.32,0,1.97,0c0.65,0,1.3,0.01,1.96,0.01
	c0.66,0,1.33,0,1.99,0c0.65,0,1.3,0,1.95,0c0.66,0,1.33,0,1.99,0c0.65,0,1.3,0,1.95,0c0.66,0,1.33,0,1.99,0
	c0.65,0,1.3-0.01,1.96-0.01c0.66,0,1.32,0,1.98,0c0.65,0,1.3,0.01,1.95,0.01c0.67,0,1.33,0,2,0c0.65,0,1.3-0.01,1.95-0.01
	c0.66,0,1.31,0.01,1.97,0.01c0.53,0,1.06,0,1.6,0c0.79-0.01,1.57-0.01,2.36-0.02c0.66,0,1.31,0,1.97,0c0.66,0,1.32,0,1.97,0
	c0.65,0,1.3,0.01,1.96,0.01c0.66,0,1.33,0,1.99,0c0.65,0,1.3,0,1.95,0c0.66,0,1.33,0,1.99,0c0.65,0,1.3,0,1.95,0
	c0.66,0,1.33,0,1.99,0c0.65,0,1.3-0.01,1.96-0.01c0.66,0,1.31,0.01,1.97,0.01c1.32,0,2.64,0,3.96,0c0.25,0.01,0.49,0.02,0.74,0.02
	c1.27-0.01,2.37-0.41,3.2-1.43c0.22-0.36,0.45-0.73,0.67-1.09c0.1-0.66,0.2-1.31,0.3-1.97c0-0.66,0-1.32,0-1.97
	c0-0.66,0-1.31,0-1.97c0-0.66,0-1.32,0-1.97c0-0.66,0-1.31,0-1.97c0-0.66,0-1.32,0-1.97c0-0.66,0-1.31,0-1.97c0-0.66,0-1.32,0-1.97
	c0-0.66,0-1.31,0-1.97c0-0.66,0-1.32,0-1.97c0-0.66,0-1.31,0-1.97c0-0.66,0-1.32,0-1.97c0-0.66,0-1.31,0-1.97c0-0.66,0-1.32,0-1.97
	c0-0.66,0-1.31,0-1.97c0-0.66,0-1.32,0-1.97c0-0.66,0-1.31,0-1.97c0-0.66,0-1.32,0-1.97c0-0.42,0-0.84,0-1.28
	c0.38-0.02,0.69-0.03,1-0.05c1.45,0,2.91,0,4.37,0c0.02,0.51,0.04,0.92,0.06,1.33c0,0.66,0,1.31,0,1.97c0,0.66,0,1.31,0,1.97
	c0,0.66,0,1.31,0,1.97c0,0.66,0,1.31,0,1.97c0,0.66,0,1.31,0,1.97c0,0.66,0,1.31,0,1.97c0,0.66,0,1.31,0,1.97c0,0.66,0,1.31,0,1.97
	c0,0.66,0,1.31,0,1.97c0,0.66,0,1.31,0,1.97c0,0.66,0,1.31,0,1.97c0,0.66,0,1.31,0,1.97c0,0.66,0,1.31,0,1.97c0,0.66,0,1.31,0,1.97
	c0,0.66,0,1.31,0,1.97c0,0.66,0,1.31,0,1.97c0,0.66,0,1.31,0,1.97c0,0.66,0,1.31,0,1.97c-0.1,0.66-0.19,1.31-0.29,1.97
	c-0.18,0.44-0.33,0.89-0.53,1.32c-0.8,1.69-2.09,2.91-3.71,3.8c-1.22,0.54-2.49,0.83-3.83,0.82c-0.66,0-1.32,0-1.98,0
	c-0.66,0-1.31,0-1.97,0c-0.66,0-1.31,0-1.97,0c-0.4,0-0.79,0-1.19,0c-0.26,0-0.52,0-0.78,0c-0.66,0-1.32,0-1.97,0
	c-0.66,0-1.31,0-1.97,0c-0.66,0-1.32,0-1.97,0c-0.66,0-1.31,0-1.97,0c-0.66,0-1.32,0-1.97,0c-0.66,0-1.31,0-1.97,0
	c-0.66,0-1.32,0-1.97,0c-0.66,0-1.31,0-1.97,0c-0.66,0-1.32,0-1.97,0c-0.66,0-1.31,0-1.97,0c-0.66,0-1.32,0-1.97,0
	c-0.66,0-1.31,0-1.97,0c-0.66,0-1.32,0-1.97,0c-0.66,0-1.31,0-1.97,0c-0.66,0-1.32,0-1.97,0c-0.66,0-1.31,0-1.97,0
	c-0.66,0-1.32,0-1.97,0c-0.66,0-1.31,0-1.97,0c-0.66,0-1.32,0-1.97,0c-0.66,0-1.31,0-1.97,0c-0.66,0-1.32,0-1.97,0
	c-0.66,0-1.31,0-1.97,0c-0.66,0-1.32,0-1.97,0c-0.66,0-1.31,0-1.97,0c-0.66,0-1.32,0-1.98,0c-0.66-0.04-1.31-0.07-1.97-0.11
	c-0.07-0.01-0.13-0.01-0.2-0.02c-0.55-0.17-1.1-0.34-1.65-0.51c-0.69-0.44-1.39-0.87-2.08-1.31c-0.03-0.02-0.06-0.04-0.08-0.06
	c-1.16-1.1-1.99-2.4-2.46-3.94c-0.09-0.65-0.18-1.3-0.27-1.96c0-0.66,0-1.32-0.01-1.98c0-0.65,0-1.31,0-1.96c0-0.66,0-1.32,0-1.98
	c0-0.66,0-1.31,0-1.97c0-0.66,0-1.32,0-1.98c0-0.65,0-1.31,0-1.96c0-0.66,0-1.32,0-1.98c0-0.66,0-1.31,0-1.97c0-0.66,0-1.32,0-1.98
	c0-0.65,0-1.31,0-1.96c0-0.66,0-1.32,0-1.98c0-0.65,0-1.31,0-1.96c0-0.66,0-1.32,0-1.98c0-0.65,0-1.31,0-1.96c0-0.66,0-1.32,0-1.98
	c0-0.65,0-1.31,0-1.96c0-0.66,0-1.32,0-1.98c0-0.66,0-1.31,0-1.97c0-0.66,0-1.32,0-1.98c0-0.66,0-1.31,0-1.97c0-0.66,0-1.32,0-1.98
	c0-0.65,0-1.31,0-1.96c0-0.66,0-1.32,0-1.98c0-0.65,0-1.31,0-1.96c0-0.66,0-1.32,0-1.98c0-0.66,0-1.31,0-1.97c0-0.66,0-1.32,0-1.98
	c0-0.65,0-1.31,0-1.96c0-0.66,0-1.32,0-1.98c0-0.65,0-1.31,0-1.96c0-0.66,0-1.32,0-1.98c0-0.65,0-1.31,0-1.96c0-0.66,0-1.32,0-1.98
	c0-0.65,0-1.31,0-1.96c0-0.66,0-1.32,0-1.98c0-0.65,0-1.31,0-1.96c0-0.66,0.01-1.32,0.01-1.98c0.1-0.61,0.2-1.23,0.29-1.84
	c0.48-1.58,1.35-2.9,2.58-3.99c0.63-0.39,1.26-0.79,1.89-1.18c0.66-0.2,1.31-0.39,1.97-0.59c2.52-0.05,5.04-0.09,7.56-0.14
	c0-0.73,0-1.42,0-2.11c0-0.66,0-1.31,0-1.97c0-0.66,0-1.32,0-1.98C27.08,2.64,27.1,1.98,27.11,1.33z M66.82,17.4
	c0.23,0,0.57,0.19,0.49-0.31c0-0.66,0-1.31,0-1.97c0-0.66,0-1.32,0-1.97c0-0.66,0-1.31,0-1.97c0-0.66,0-1.32,0-1.97
	c0-0.66,0-1.31,0-1.97c0-0.17,0-0.34,0-0.57c-0.19,0.01-0.34,0.02-0.5,0.03c-0.65,0-1.3,0.01-1.95,0.01c-0.59,0-1.18-0.01-1.77-0.01
	c-0.07,0-0.14,0-0.21,0.01c-0.65,0-1.3,0.01-1.96,0.01c-0.59,0-1.18-0.01-1.77-0.01c-0.07,0-0.14,0-0.21,0.01
	c-0.65,0-1.3,0.01-1.95,0.01c-0.59,0-1.18-0.01-1.77-0.01c-0.07,0-0.14,0-0.21,0.01c-0.65,0-1.3,0-1.95,0c-0.66,0-1.33,0-1.99,0
	c-0.65,0-1.31,0.01-1.96,0.01c-1.97,0-3.94,0-5.91,0c-0.65,0-1.31,0-1.96,0c-0.59,0-1.18-0.01-1.77-0.01c-0.07,0-0.14,0-0.21,0.01
	c-0.65,0-1.3,0-1.95,0c-0.66,0-1.33,0-1.99,0c-0.65,0-1.3,0-1.95,0c-0.22,0-0.44,0-0.69,0c0.01,0.22,0.02,0.38,0.03,0.54
	c0,0.65,0,1.31,0,1.96c0,0.66,0,1.32,0,1.98c0,0.65,0,1.31,0,1.96c0,0.66,0,1.32,0,1.98c0,0.65,0,1.31,0,1.96
	c-0.06,0.55,0.33,0.28,0.55,0.3c0.69,0,1.38,0,2.07,0c0.66,0,1.32,0,1.97,0c0.66,0,1.31,0,1.97,0c0.66,0,1.32,0,1.97,0
	c0.66,0,1.31,0,1.97,0c0.66,0,1.32,0,1.97,0c0.66,0,1.31,0,1.97,0c0.66,0,1.32,0,1.97,0c0.66,0,1.31,0,1.97,0c0.66,0,1.32,0,1.97,0
	c0.66,0,1.31,0,1.97,0c0.66,0,1.32,0,1.97,0c0.66,0,1.31,0,1.97,0c0.66,0,1.32,0,1.97,0c0.66,0,1.31,0,1.97,0c0.66,0,1.32,0,1.97,0
	C65.5,17.4,66.16,17.4,66.82,17.4z"/>
<path class="st0" d="M94.51,36.7c-0.03,0.03-0.07,0.07-0.1,0.1c-0.66,0.66-1.31,1.31-1.97,1.97l0,0c-0.66,0.66-1.31,1.31-1.97,1.97
	c-0.66,0.66-1.31,1.31-1.97,1.97c-0.66,0.66-1.31,1.31-1.97,1.97c-0.66,0.66-1.32,1.31-1.97,1.97l0,0
	c-0.66,0.66-1.31,1.31-1.97,1.97l0,0c-0.66,0.66-1.31,1.31-1.97,1.97c0,0,0,0,0,0c-0.66,0.66-1.31,1.31-1.97,1.97c0,0,0,0,0,0
	c-0.66,0.66-1.31,1.31-1.97,1.97l0,0c-0.66,0.66-1.31,1.31-1.97,1.97c-0.66,0.66-1.31,1.31-1.97,1.97
	c-0.66,0.66-1.31,1.31-1.97,1.97c-0.66,0.66-1.31,1.31-1.97,1.97c-0.66,0.66-1.31,1.31-1.97,1.97c-0.66,0.66-1.31,1.31-1.97,1.97
	c-0.66,0.66-1.31,1.31-1.97,1.97c-0.66,0.66-1.31,1.31-1.97,1.97c-0.32,0.31-0.68,0.6-0.97,0.94c-0.32,0.37-0.59,0.45-0.93,0.05
	c-1.34-1.34-2.68-2.68-4.03-4.03c-0.13-0.13-0.26-0.26-0.4-0.4c-0.04-0.04-0.07-0.07-0.11-0.11c-0.49-0.49-0.98-0.98-1.47-1.47
	c-0.04-0.04-0.07-0.07-0.11-0.11c-0.16-0.16-0.33-0.33-0.49-0.49c-0.06-0.06-0.12-0.12-0.19-0.19c-0.04-0.04-0.07-0.07-0.11-0.11
	c-0.36-0.36-0.71-0.71-1.07-1.07c-0.13-0.13-0.26-0.26-0.39-0.39c-0.04-0.04-0.07-0.07-0.11-0.11c-0.79-0.79-1.58-1.58-2.37-2.37
	c-0.42-0.42-0.84-0.85-1.27-1.27c-0.1-0.1-0.2-0.2-0.3-0.3c-0.09-0.09-0.18-0.18-0.26-0.27c0-0.02-0.02-0.04-0.04-0.04
	c-1.15-1.09-2.29-2.19-3.56-3.4c1.3-1.24,2.47-2.37,3.65-3.5c0.04-0.04,0.08-0.08,0.12-0.12c0.14,0,0.27,0.01,0.41,0.01
	c0.33,0.33,0.66,0.66,0.99,1c0.39,0.39,0.79,0.79,1.18,1.18c0.26,0.26,0.53,0.53,0.79,0.79c0.36,0.36,0.72,0.73,1.08,1.09
	c0.3,0.29,0.6,0.59,0.9,0.88c0.39,0.39,0.78,0.79,1.18,1.18c0.26,0.26,0.53,0.53,0.79,0.79c0.39,0.39,0.79,0.79,1.18,1.18
	c0.26,0.26,0.53,0.53,0.79,0.79c0.39,0.39,0.79,0.79,1.18,1.18c0.26,0.26,0.53,0.53,0.79,0.79c0.39,0.39,0.78,0.79,1.18,1.18
	c0.16,0.17,0.31,0.33,0.45,0.48c10.66-10.66,21.3-21.3,31.9-31.91c1.33,1.33,2.57,2.59,3.84,3.86
	C94.96,36.21,94.74,36.45,94.51,36.7z"/>
<path class="st0" d="M72.72,40.74c0,0.25-0.01,0.5-0.01,0.75c-0.39,0.03-0.78,0.05-1.16,0.08c-0.07,0-0.14,0-0.2,0
	c-0.2,0-0.39,0-0.59,0.01c-0.72,0-1.44,0-2.16,0c-0.4,0-0.8,0-1.19,0c-0.2,0-0.39,0-0.59,0.01c-0.72,0-1.44,0-2.16,0
	c-0.4,0-0.8,0-1.19,0c-0.2,0-0.39,0-0.59,0.01c-0.65,0-1.31,0-1.96,0c-0.66,0-1.32,0-1.98,0c-0.72,0-1.44,0-2.16,0
	c-0.4,0-0.8,0-1.19,0c-0.2,0-0.39,0-0.59,0.01c-0.65,0-1.31,0-1.96,0c-0.66,0-1.32,0-1.98,0c-0.66,0-1.31,0-1.97,0
	c-0.66,0-1.32,0-1.98,0c-0.72,0-1.44,0-2.16,0c-0.4,0-0.8,0-1.19,0c-0.2,0-0.39,0-0.59,0.01c-0.65,0-1.31,0-1.96,0
	c-0.66,0-1.32,0-1.98,0c-0.65,0-1.31,0-1.96,0c-0.66,0-1.32,0-1.98,0c-0.72,0-1.44,0-2.16,0c-0.4,0-0.8,0-1.19,0
	c-0.2,0-0.39,0-0.59,0.01c-0.65,0-1.31,0-1.96,0c-0.53,0-1.05,0-1.58-0.01c-0.13,0-0.27,0-0.4,0c-0.1-0.1-0.25-0.19-0.29-0.31
	c-0.05-0.16-0.02-0.34-0.03-0.52c0-0.66,0-1.32,0-1.98c0-0.65,0-1.31,0-1.96c0.11-0.21-0.17-0.61,0.32-0.62c0.66,0,1.31,0,1.97,0
	c0.66,0,1.32,0,1.97,0c0.66,0,1.31,0,1.97,0c0.66,0,1.32,0,1.97,0c0.66,0,1.31,0,1.97,0c0.66,0,1.32,0,1.97,0c0.66,0,1.31,0,1.97,0
	c0.66,0,1.32,0,1.97,0c0.66,0,1.31,0,1.97,0c0.66,0,1.32,0,1.97,0c0.66,0,1.31,0,1.97,0c0.66,0,1.32,0,1.97,0c0.66,0,1.31,0,1.97,0
	c0.66,0,1.32,0,1.97,0c0.66,0,1.31,0,1.97,0c0.66,0,1.32,0,1.97,0c0.66,0,1.31,0,1.97,0c0.66,0,1.32,0,1.97,0c0.66,0,1.31,0,1.97,0
	c0.66,0,1.32,0,1.97,0c0.66,0,1.31,0,1.97,0c0.66,0,1.32,0,1.97,0c0.65,0.02,1.31,0.04,1.96,0.06c0,0.19,0,0.37,0,0.56
	c0,0.66,0,1.31,0,1.97C72.72,39.43,72.72,40.09,72.72,40.74z"/>
<path class="st0" d="M27.08,72.28c0-0.66,0-1.32,0-1.98c0.01-0.63,0.02-1.25,0.03-1.88c0.1-0.02,0.2-0.03,0.3-0.05
	c0.66,0,1.31,0,1.97,0c0.66,0,1.32,0,1.98,0c0.65,0,1.31,0,1.96,0c0.66,0,1.32,0,1.97,0c0.66,0,1.31,0,1.97,0c0.66,0,1.32,0,1.97,0
	c0.66,0,1.31,0,1.97,0c0.66,0,1.32,0,1.98,0c0.65,0,1.31,0,1.96,0c0.66,0,1.32,0,1.98,0c0.07,0.01,0.13,0.02,0.2,0.03
	c0.03,0.64,0.05,1.27,0.08,1.91c0,0.66,0,1.31,0,1.97c-0.01,0.39,0,0.79-0.04,1.18c-0.01,0.11-0.16,0.21-0.25,0.32
	c-1.97,0-3.94,0-5.91,0c-0.66,0-1.32,0-1.97,0c-1.97,0-3.94,0-5.91,0c-0.66,0-1.32,0-1.97,0c-0.66,0-1.31,0-1.97,0
	c-0.66,0-1.32,0-1.97,0c-0.1-0.1-0.28-0.2-0.29-0.31C27.07,73.07,27.08,72.67,27.08,72.28z"/>
<path class="st0" d="M37.26,54.54c0,0.66,0,1.31,0,1.97c-0.01,0.38-0.02,0.75-0.02,1.13c-0.65,0.02-1.3,0.04-1.95,0.06
	c-0.66,0-1.31,0-1.97,0c-0.66,0-1.31,0-1.97,0c-0.66,0-1.31,0-1.97,0c-0.66,0-1.31,0-1.97,0c-0.1-0.11-0.27-0.2-0.29-0.32
	c-0.05-0.28-0.03-0.57-0.03-0.86c0-0.66,0-1.32,0-1.98c0-0.66,0-1.31,0-1.97c0.11-0.1,0.22-0.2,0.33-0.3c0.66,0,1.31,0,1.97,0
	c0.66,0,1.31,0,1.97,0c0.66,0,1.31,0,1.97,0c0.66,0,1.31,0,1.97,0c0.65,0.02,1.31,0.04,1.96,0.06c0,0.08,0.01,0.16,0.01,0.23
	C37.26,53.22,37.26,53.88,37.26,54.54z"/>
</svg>
