<?xml version="1.0" encoding="utf-8"?>
<!-- Generator: Adobe Illustrator 25.2.0, SVG Export Plug-In . SVG Version: 6.00 Build 0)  -->
<svg version="1.1" id="Layer_1" xmlns="http://www.w3.org/2000/svg" xmlns:xlink="http://www.w3.org/1999/xlink" x="0px" y="0px"
	 viewBox="0 0 100 100" style="enable-background:new 0 0 100 100;" xml:space="preserve">
<style type="text/css">
	.st0{fill:#FFFFFF;}
</style>
<path class="st0" d="M50.23,2.28c26.39,0.11,47.85,21.83,47.68,48.26c-0.17,26.24-21.75,47.7-47.89,47.62
	C23.37,98.07,1.91,76.54,2.04,50C2.17,23.51,23.72,2.17,50.23,2.28z M49.93,6.73C25.4,6.87,6.4,26.74,6.54,50.14
	c0.15,24.59,19.68,43.78,43.9,43.48c23.87-0.29,43.26-20.01,43.02-43.55C93.22,25.93,73.73,6.82,49.93,6.73z"/>
<path class="st0" d="M33.17,40.48c0.22-7.95,6.15-14.17,13.92-14.85c4.26-0.37,8.38-0.03,12.23,2.05
	c7.84,4.23,9.73,14.22,3.83,20.89c-2.06,2.33-4.34,4.47-6.63,6.58c-2.49,2.3-3.83,5.02-3.74,8.43c0.02,0.63-0.14,1.27-0.23,2
	c-1.97,0-3.82,0-5.76,0c-0.72-5.44,0.71-10.06,4.65-13.83c1.73-1.65,3.49-3.27,5.21-4.93c3.47-3.33,4.33-6.73,2.64-10.29
	c-1.87-3.94-5.94-6.23-10.28-5.81c-4.26,0.41-7.07,2.68-8.53,6.66c-0.45,1.22-0.76,2.48-1.19,3.87
	C37.29,40.98,35.31,40.74,33.17,40.48z"/>
<path class="st0" d="M46.35,78.46c0-2.32,0-4.54,0-6.91c2.21,0,4.41,0,6.78,0c0,2.25,0,4.52,0,6.91
	C50.88,78.46,48.68,78.46,46.35,78.46z"/>
</svg>
