<?xml version="1.0" encoding="utf-8"?>
<!-- Generator: Adobe Illustrator 25.2.0, SVG Export Plug-In . SVG Version: 6.00 Build 0)  -->
<svg version="1.1" id="Layer_1" xmlns="http://www.w3.org/2000/svg" xmlns:xlink="http://www.w3.org/1999/xlink" x="0px" y="0px"
	 viewBox="0 0 37 34.9" style="enable-background:new 0 0 37 34.9;" xml:space="preserve">
<style type="text/css">
	.st0{fill:none;}
	.st1{fill:#FFFFFF;}
</style>
<path class="st0" d="M3.3,0.7h19.4v19.4H3.3V0.7z"/>
<g>
	<path class="st1" d="M31,3.3l-2.5-2.5L26,3.3l-2.5-2.5L21,3.3l-2.5-2.5L16,3.3l-2.5-2.5L11,3.3L8.6,0.8v23.3h-5v5c0,2.8,2.2,5,5,5
		h19.9c2.8,0,5-2.2,5-5V0.8L31,3.3z M23.5,30.7h-15c-0.9,0-1.7-0.7-1.7-1.7v-1.7h16.6V30.7z M30.2,29.1c0,0.9-0.7,1.7-1.7,1.7
		s-1.7-0.7-1.7-1.7v-5h-15V5.8h18.3V29.1z"/>
	<rect x="13.5" y="9.1" class="st1" width="10" height="3.3"/>
	<rect x="25.2" y="9.1" class="st1" width="3.3" height="3.3"/>
	<rect x="13.5" y="14.1" class="st1" width="10" height="3.3"/>
	<rect x="25.2" y="14.1" class="st1" width="3.3" height="3.3"/>
</g>
</svg>
