<?xml version="1.0" encoding="utf-8"?>
<!-- Generator: Adobe Illustrator 25.2.0, SVG Export Plug-In . SVG Version: 6.00 Build 0)  -->
<svg version="1.1" id="Layer_1" xmlns="http://www.w3.org/2000/svg" xmlns:xlink="http://www.w3.org/1999/xlink" x="0px" y="0px"
	 viewBox="0 0 512 512" style="enable-background:new 0 0 512 512;" xml:space="preserve">
<style type="text/css">
	.st0{fill:url(#SVGID_1_);stroke:url(#SVGID_2_);stroke-miterlimit:10;}
	.st1{fill:url(#SVGID_3_);stroke:url(#SVGID_4_);stroke-miterlimit:10;}
	.st2{fill:url(#SVGID_5_);stroke:url(#SVGID_6_);stroke-miterlimit:10;}
	.st3{fill:url(#SVGID_7_);stroke:url(#SVGID_8_);stroke-miterlimit:10;}
	.st4{fill:url(#SVGID_9_);stroke:url(#SVGID_10_);stroke-miterlimit:10;}
</style>
<g>
	<linearGradient id="SVGID_1_" gradientUnits="userSpaceOnUse" x1="145.8113" y1="148.9653" x2="287.9879" y2="148.9653">
		<stop  offset="0" style="stop-color:#4E536D"/>
		<stop  offset="1" style="stop-color:#ECA570"/>
	</linearGradient>
	<linearGradient id="SVGID_2_" gradientUnits="userSpaceOnUse" x1="145.3113" y1="148.9653" x2="288.4879" y2="148.9653">
		<stop  offset="0" style="stop-color:#4E536D"/>
		<stop  offset="1" style="stop-color:#ECA570"/>
	</linearGradient>
	<path class="st0" d="M152.03,155.39h129.73c8.3,0,8.3-12.82,0-12.82H152.03C143.74,141.81,143.74,155.39,152.03,155.39z"/>
	<linearGradient id="SVGID_3_" gradientUnits="userSpaceOnUse" x1="145.8113" y1="197.9917" x2="258.5721" y2="197.9917">
		<stop  offset="0" style="stop-color:#4E536D"/>
		<stop  offset="1" style="stop-color:#ECA570"/>
	</linearGradient>
	<linearGradient id="SVGID_4_" gradientUnits="userSpaceOnUse" x1="145.3113" y1="197.9917" x2="259.0721" y2="197.9917">
		<stop  offset="0" style="stop-color:#4E536D"/>
		<stop  offset="1" style="stop-color:#ECA570"/>
	</linearGradient>
	<path class="st1" d="M152.03,204.42h100.32c8.3,0,8.3-12.82,0-12.82H152.03C143.74,190.84,143.74,204.42,152.03,204.42z"/>
	<linearGradient id="SVGID_5_" gradientUnits="userSpaceOnUse" x1="145.8113" y1="246.2639" x2="244.2412" y2="246.2639">
		<stop  offset="0" style="stop-color:#4E536D"/>
		<stop  offset="1" style="stop-color:#ECA570"/>
	</linearGradient>
	<linearGradient id="SVGID_6_" gradientUnits="userSpaceOnUse" x1="145.3113" y1="246.2639" x2="244.7412" y2="246.2639">
		<stop  offset="0" style="stop-color:#4E536D"/>
		<stop  offset="1" style="stop-color:#ECA570"/>
	</linearGradient>
	<path class="st2" d="M152.03,252.69h85.98c8.3,0,8.3-12.82,0-12.82h-85.98C143.74,239.11,143.74,252.69,152.03,252.69z"/>
	<linearGradient id="SVGID_7_" gradientUnits="userSpaceOnUse" x1="145.2457" y1="371.4849" x2="281.0111" y2="371.4849">
		<stop  offset="0" style="stop-color:#4E536D"/>
		<stop  offset="1" style="stop-color:#ECA570"/>
	</linearGradient>
	<linearGradient id="SVGID_8_" gradientUnits="userSpaceOnUse" x1="144.7457" y1="371.4849" x2="281.5111" y2="371.4849">
		<stop  offset="0" style="stop-color:#4E536D"/>
		<stop  offset="1" style="stop-color:#ECA570"/>
	</linearGradient>
	<path class="st3" d="M274.22,415.61h-4.53v-64.87c0-3.77-3.02-6.79-6.79-6.79h-26.4v-23.38c0-3.77-3.02-6.79-6.79-6.79h-33.19
		c-3.77,0-6.79,3.02-6.79,6.79v39.98h-26.4c-3.77,0-6.79,3.02-6.79,6.79v48.27h-4.53c-3.77,0-6.79,3.02-6.79,6.79
		s3.02,6.79,6.79,6.79h122.19c3.77,0,6.79-3.02,6.79-6.79S277.99,415.61,274.22,415.61z M170.89,415.61v-41.48h19.61v41.48H170.89z
		 M204.08,415.61v-88.25h19.61v88.25H204.08z M237.26,415.61v-58.08h19.61v58.08H237.26z"/>
	<linearGradient id="SVGID_9_" gradientUnits="userSpaceOnUse" x1="44.93" y1="259.1013" x2="497.633" y2="259.1013">
		<stop  offset="0" style="stop-color:#4E536D"/>
		<stop  offset="1" style="stop-color:#ECA570"/>
	</linearGradient>
	<linearGradient id="SVGID_10_" gradientUnits="userSpaceOnUse" x1="44.43" y1="259.1013" x2="498.133" y2="259.1013">
		<stop  offset="0" style="stop-color:#4E536D"/>
		<stop  offset="1" style="stop-color:#ECA570"/>
	</linearGradient>
	<path class="st4" d="M497.48,239.11c-0.75-27.91-12.07-54.31-32.43-73.92c-9.81-9.81-20.36-16.59-31.68-21.87c0,0-0.75,0-0.75-0.75
		c0,0-0.75,0-0.75-0.75c-15.09-6.79-30.92-9.81-46.76-9.05V95.81c0-8.3-6.79-15.09-15.09-15.09h-9.81v-8.3
		c0-8.3-6.79-15.09-15.09-15.09h-9.81v-9.05c0-8.3-6.79-15.09-15.09-15.09H60.02c-8.3,0-15.09,6.79-15.09,15.09v373.36
		c0,8.3,6.79,15.09,15.09,15.09h9.81v9.81c0,8.3,6.79,15.09,15.09,15.09h9.81v8.3c0,8.3,6.79,15.09,15.09,15.09h207.42
		c1.51,0,3.77-0.75,4.53-1.51l61.09-61.09c1.51-1.51,1.51-3.02,1.51-4.53v-65.62c0.75,0,1.51,0,3.02,0
		c18.86,0,36.96-5.28,53.55-14.33c7.54-3.77,0.75-15.84-6.03-12.07c-35.45,19.61-79.95,15.09-110.12-11.31l64.87-64.87l89,23.38
		c-3.77,12.07-9.81,22.63-18.86,32.43c-5.28,6.03,4.53,15.09,9.81,8.3C489.18,294.17,498.99,267.78,497.48,239.11L497.48,239.11z
		 M422.06,153.13l-39.22,86.74L315.71,307c-33.19-37.71-30.92-95.04,4.53-131.24C347.39,147.09,387.36,140.31,422.06,153.13
		L422.06,153.13z M84.91,448.8c-1.51,0-2.26-0.75-2.26-2.26V73.18c0-1.51,0.75-2.26,2.26-2.26h46.01c8.3,0,8.3-12.82,0-12.82H84.91
		c-8.3,0-15.09,6.79-15.09,15.09v350.73h-9.81c-1.51,0-2.26-0.75-2.26-2.26V48.29c0-1.51,0.75-2.26,2.26-2.26h260.22
		c1.51,0,2.26,0.75,2.26,2.26v9.81H168.63c-8.3,0-8.3,12.82,0,12.82h176.5c1.51,0,2.26,0.75,2.26,2.26v8.3H110.55
		c-8.3,0-15.09,6.79-15.09,15.09V448.8H84.91z M108.29,470.67V97.31c0-1.51,0.75-2.26,2.26-2.26h260.22c1.51,0,2.26,0.75,2.26,2.26
		v37.71c-22.63,3.02-43.75,13.58-61.09,30.92c-42.24,42.24-42.24,112.38,0,154.62c16.59,16.59,37.71,27.91,61.09,30.92v59.59h-46.01
		c-8.3,0-15.09,6.79-15.09,15.09v46.01H111.3C109.04,472.93,108.29,471.42,108.29,470.67L108.29,470.67z M324,463.13v-36.96
		c0-1.51,0.75-2.26,2.26-2.26h36.96L324,463.13z M397.92,238.36l36.2-80.71c8.3,4.53,15.84,9.81,22.63,16.59
		c23.38,23.38,32.43,55.81,26.4,85.98L397.92,238.36z"/>
</g>
</svg>
