<?xml version="1.0" encoding="utf-8"?>
<!-- Generator: Adobe Illustrator 25.4.1, SVG Export Plug-In . SVG Version: 6.00 Build 0)  -->
<svg version="1.1" id="Layer_1" xmlns="http://www.w3.org/2000/svg" xmlns:xlink="http://www.w3.org/1999/xlink" x="0px" y="0px"
	 viewBox="0 0 512 512" style="enable-background:new 0 0 512 512;" xml:space="preserve">
<path d="M233.4,240.8c0-0.5,0.4-0.9,0.9-0.9h15c0.5,0,0.9,0.4,0.9,0.9s-0.4,0.9-0.9,0.9h-15C233.8,241.7,233.4,241.3,233.4,240.8z
	 M234.3,251.9h15c0.5,0,0.9-0.4,0.9-0.9s-0.4-0.9-0.9-0.9h-15c-0.5,0-0.9,0.4-0.9,0.9S233.8,251.9,234.3,251.9z M244.7,260.1h-10.4
	c-0.5,0-0.9,0.4-0.9,0.9c0,0.5,0.4,0.9,0.9,0.9h10.4c0.5,0,0.9-0.4,0.9-0.9C245.7,260.6,245.2,260.1,244.7,260.1z M244.7,270.3
	h-10.4c-0.5,0-0.9,0.4-0.9,0.9s0.4,0.9,0.9,0.9h10.4c0.5,0,0.9-0.4,0.9-0.9S245.2,270.3,244.7,270.3z M282.2,267.6
	c0,8-6.5,14.6-14.6,14.6s-14.6-6.5-14.6-14.6s6.5-14.6,14.6-14.6S282.2,259.6,282.2,267.6z M278.1,274.7l-0.6-0.3
	c-0.4-0.3-0.6-0.8-0.3-1.3c0.3-0.4,0.8-0.6,1.3-0.3l0.6,0.3c0.7-1.4,1.1-3,1.2-4.6h-0.7c-0.5,0-0.9-0.4-0.9-0.9
	c0-0.5,0.4-0.9,0.9-0.9h0.7c-0.1-1.6-0.5-3.2-1.2-4.6l-0.6,0.3c-0.1,0.1-0.3,0.1-0.5,0.1c-0.3,0-0.6-0.2-0.8-0.5
	c-0.3-0.4-0.1-1,0.3-1.3l0.6-0.3c-0.9-1.3-2-2.5-3.4-3.4l-0.3,0.6c-0.2,0.3-0.5,0.5-0.8,0.5c-0.2,0-0.3,0-0.5-0.1
	c-0.4-0.3-0.6-0.8-0.3-1.3l0.3-0.6c-1.4-0.7-3-1.1-4.6-1.2v0.7c0,0.5-0.4,0.9-0.9,0.9s-0.9-0.4-0.9-0.9v-0.7
	c-1.6,0.1-3.2,0.5-4.6,1.2l0.3,0.6c0.3,0.4,0.1,1-0.3,1.3c-0.1,0.1-0.3,0.1-0.5,0.1c-0.3,0-0.6-0.2-0.8-0.5l-0.3-0.6
	c-1.3,0.9-2.5,2-3.4,3.4l0.6,0.3c0.4,0.3,0.6,0.8,0.3,1.3c-0.2,0.3-0.5,0.5-0.8,0.5c-0.2,0-0.3,0-0.5-0.1l-0.6-0.3
	c-0.7,1.4-1.1,3-1.2,4.6h0.7c0.5,0,0.9,0.4,0.9,0.9s-0.4,0.9-0.9,0.9h-0.7c0.1,1.6,0.5,3.2,1.2,4.6l0.6-0.3c0.4-0.3,1-0.1,1.3,0.3
	c0.3,0.4,0.1,1-0.3,1.3l-0.6,0.3c0.9,1.3,2,2.5,3.4,3.4l0.3-0.6c0.3-0.4,0.8-0.6,1.3-0.3c0.4,0.3,0.6,0.8,0.3,1.3l-0.3,0.6
	c1.4,0.7,3,1.1,4.6,1.2v-0.7c0-0.5,0.4-0.9,0.9-0.9s0.9,0.4,0.9,0.9v0.7c1.6-0.1,3.2-0.5,4.6-1.2l-0.3-0.6c-0.3-0.4-0.1-1,0.3-1.3
	c0.4-0.3,1-0.1,1.3,0.3l0.3,0.6C276.1,277.2,277.2,276.1,278.1,274.7z M274.1,271.3c-0.2,0.3-0.5,0.5-0.8,0.5c-0.2,0-0.3,0-0.5-0.1
	l-3.3-1.9c-0.5,0.4-1.1,0.7-1.8,0.7c-1.6,0-2.8-1.3-2.8-2.8c0-1.2,0.8-2.3,1.9-2.7l0-6c0-0.5,0.4-0.9,0.9-0.9c0.5,0,0.9,0.4,0.9,0.9
	l0,6c1.1,0.4,1.9,1.4,1.9,2.7c0,0.2,0,0.4,0,0.5l3.3,1.9C274.2,270.3,274.3,270.9,274.1,271.3L274.1,271.3z M268.5,267.6
	c0-0.5-0.4-0.9-0.9-0.9c-0.5,0-0.9,0.4-0.9,0.9c0,0.5,0.4,0.9,0.9,0.9C268.1,268.5,268.5,268.1,268.5,267.6z M267.6,286
	C267.6,286,267.6,286,267.6,286l-40.7,0c-0.5,0-0.9-0.4-0.9-0.9v-58.1c0-0.5,0.4-0.9,0.9-0.9h29.1c0.3,0,0.5,0.1,0.7,0.3l11.5,12
	c0.2,0.2,0.3,0.4,0.3,0.6v10.3c9.7,0.5,17.5,8.5,17.5,18.4C286,277.7,277.7,286,267.6,286L267.6,286z M256.5,228.7v9.3h8.9
	L256.5,228.7z M227.9,284.1h31.6c-6.1-3-10.3-9.3-10.3-16.5c0-9.8,7.8-17.9,17.5-18.4v-9.3h-11.1c-0.5,0-0.9-0.4-0.9-0.9v-11.1
	h-26.8V284.1z M284.1,267.6c0-9.1-7.4-16.5-16.5-16.5s-16.5,7.4-16.5,16.5s7.4,16.5,16.5,16.5S284.1,276.7,284.1,267.6z"/>
</svg>
