<?xml version="1.0" encoding="utf-8"?>
<!-- Generator: Adobe Illustrator 25.2.0, SVG Export Plug-In . SVG Version: 6.00 Build 0)  -->
<svg version="1.1" id="Layer_1" xmlns="http://www.w3.org/2000/svg" xmlns:xlink="http://www.w3.org/1999/xlink" x="0px" y="0px"
	 viewBox="0 0 30 28" style="enable-background:new 0 0 30 28;" xml:space="preserve">
<style type="text/css">
	.st0{fill:#1B2346;}
</style>
<g>
	<path class="st0" d="M14.81,0.17c7.79-0.32,13.47,6.31,13.9,12.4c0.27,3.82-0.61,7.27-3.1,10.21c-2.97,3.5-6.79,5.24-11.4,5.05
		C7.3,27.55,0.76,21.74,1.04,13.36C1.27,6.18,7.41-0.11,14.81,0.17z M7.82,5.08c5.31,5.34,10.62,10.69,15.93,16.04
		c3.91-4.56,3.36-12.21-1.8-16.22C17.07,1.12,10.57,2.35,7.82,5.08z M6.02,6.68c-0.37,0.57-0.68,1-0.94,1.45
		c-1.41,2.38-1.84,4.96-1.44,7.67c0.43,2.87,1.87,5.22,4.04,7.09c1.22,1.05,2.67,1.77,4.26,2.13c1.5,0.34,3.02,0.7,4.55,0.35
		c1.83-0.41,3.61-0.99,5.15-2.15c0.41-0.31,0.36-0.43,0.06-0.73c-2.61-2.59-5.21-5.19-7.82-7.78c-1.29-1.28-2.59-2.56-3.86-3.86
		C8.72,9.51,7.43,8.15,6.02,6.68z"/>
	<path class="st0" d="M18.07,14.99c-0.75-0.76-1.48-1.49-2.18-2.24c-0.09-0.1-0.13-0.33-0.08-0.46c1.08-2.83,4.03-3.8,6.53-2.47
		c0.66,0.35,0.81,0.71,0.12,1.3C21,12.37,19.57,13.66,18.07,14.99z"/>
	<path class="st0" d="M18.9,15.68c1.52-1.34,3.02-2.67,4.53-3.99c0.4-0.35,0.61-0.08,0.8,0.28c0.96,1.88,0.34,4.38-1.4,5.63
		c-1.17,0.84-1.25,0.83-2.26-0.17c-0.53-0.52-1.05-1.05-1.57-1.57C18.97,15.83,18.95,15.79,18.9,15.68z"/>
	<path class="st0" d="M9.54,6.21c0.48-0.1,0.93-0.23,1.38-0.29c1.24-0.15,2.28,0.53,2.61,1.74c0.26,0.95,0.45,1.92,0.67,2.88
		c0.03,0.12,0,0.25,0,0.46c-0.63-0.49-0.82-1.09-0.93-1.75c-0.09-0.51-0.19-1.03-0.35-1.52c-0.29-0.92-1.17-1.37-2.12-1.16
		C10.35,6.68,9.83,6.95,9.54,6.21z"/>
	<path class="st0" d="M7.55,8.84c1.04,0.6,0.91,1.61,1.12,2.46c0.29,1.2,0.53,2.41,0.81,3.7c0.91-0.19,1.79-0.34,2.64-0.58
		c0.59-0.16,1.04-0.13,1.41,0.4c0.1,0.14,0.25,0.25,0.37,0.38c1.73,1.74,1.73,1.74,2.18,4.12c0.09,0.49,0.22,0.99,0.24,1.49
		c0.04,1.22-0.62,2.1-1.8,2.38c-0.73,0.17-1.49,0.31-2.23,0.29c-0.92-0.02-1.74-0.79-1.94-1.69c-0.92-4.22-1.82-8.45-2.73-12.67
		C7.6,9.05,7.58,8.98,7.55,8.84z"/>
</g>
</svg>
