<?xml version="1.0" encoding="utf-8"?>
<!-- Generator: Adobe Illustrator 25.2.0, SVG Export Plug-In . SVG Version: 6.00 Build 0)  -->
<svg version="1.1" id="Layer_1" width="21px" height="18px" xmlns="http://www.w3.org/2000/svg" xmlns:xlink="http://www.w3.org/1999/xlink" x="0px" y="0px"
	 viewBox="0 0 21 18" style="enable-background:new 0 0 21 18;" xml:space="preserve">
<style type="text/css">
	.st0{fill:#1B2346;}
</style>
<g>
	<path class="st0" d="M10.45,0.16c4.98-0.2,8.61,4.04,8.89,7.93c0.17,2.44-0.39,4.65-1.98,6.53c-1.9,2.24-4.34,3.35-7.29,3.23
		c-4.41-0.18-8.59-3.9-8.42-9.25C1.79,4,5.71-0.02,10.45,0.16z M5.98,3.3c3.39,3.42,6.79,6.83,10.19,10.26
		c2.5-2.91,2.15-7.8-1.15-10.37C11.89,0.76,7.74,1.55,5.98,3.3z M4.82,4.32c-0.24,0.36-0.43,0.64-0.6,0.93
		c-0.9,1.52-1.18,3.17-0.92,4.9c0.27,1.83,1.19,3.34,2.58,4.53c0.78,0.67,1.71,1.13,2.72,1.36c0.96,0.22,1.93,0.45,2.91,0.23
		c1.17-0.26,2.31-0.63,3.29-1.37c0.26-0.2,0.23-0.28,0.04-0.47c-1.67-1.66-3.33-3.32-5-4.98C9.03,8.63,8.2,7.81,7.39,6.98
		C6.55,6.13,5.73,5.26,4.82,4.32z"/>
	<path class="st0" d="M12.53,9.63c-0.48-0.49-0.94-0.95-1.4-1.44c-0.06-0.06-0.08-0.21-0.05-0.29c0.69-1.81,2.58-2.43,4.18-1.58
		c0.42,0.22,0.52,0.46,0.08,0.83C14.4,7.96,13.49,8.79,12.53,9.63z"/>
	<path class="st0" d="M13.06,10.07c0.97-0.86,1.93-1.71,2.9-2.55c0.25-0.22,0.39-0.05,0.51,0.18c0.61,1.2,0.22,2.8-0.89,3.6
		c-0.74,0.54-0.8,0.53-1.44-0.11c-0.34-0.34-0.67-0.67-1.01-1.01C13.1,10.17,13.1,10.14,13.06,10.07z"/>
	<path class="st0" d="M7.07,4.02c0.31-0.07,0.59-0.15,0.88-0.19c0.79-0.1,1.46,0.34,1.67,1.11c0.17,0.61,0.29,1.23,0.43,1.84
		c0.02,0.08,0,0.16,0,0.29c-0.4-0.32-0.52-0.7-0.6-1.12C9.4,5.64,9.34,5.31,9.24,5C9.05,4.41,8.49,4.12,7.88,4.26
		C7.59,4.32,7.26,4.49,7.07,4.02z"/>
	<path class="st0" d="M5.81,5.7c0.66,0.38,0.58,1.03,0.71,1.57c0.19,0.77,0.34,1.54,0.52,2.36c0.58-0.12,1.14-0.22,1.69-0.37
		c0.38-0.1,0.67-0.08,0.9,0.26c0.06,0.09,0.16,0.16,0.24,0.24c1.11,1.12,1.11,1.11,1.39,2.63c0.06,0.32,0.14,0.63,0.15,0.95
		c0.03,0.78-0.39,1.35-1.15,1.52c-0.47,0.11-0.95,0.2-1.43,0.19c-0.59-0.01-1.12-0.5-1.24-1.08c-0.59-2.7-1.16-5.4-1.75-8.1
		C5.84,5.83,5.83,5.79,5.81,5.7z"/>
</g>
</svg>
