<?xml version="1.0" encoding="utf-8"?>
<!-- Generator: Adobe Illustrator 25.2.0, SVG Export Plug-In . SVG Version: 6.00 Build 0)  -->
<svg version="1.1" id="Layer_1" xmlns="http://www.w3.org/2000/svg" xmlns:xlink="http://www.w3.org/1999/xlink" x="0px" y="0px"
	 viewBox="0 0 598.32 123.12" style="enable-background:new 0 0 598.32 123.12;" xml:space="preserve">
<style type="text/css">
	.st0{fill:#B32025;}
	.st1{font-family:'CoHeadlineW23-ArabicBold';}
	.st2{font-size:130px;}
	.st3{fill:none;stroke:#BE1E2D;stroke-width:2.9;stroke-miterlimit:10;}
</style>
<g>
	<g>
		<path class="st0" d="M30.77,4.08c-0.63,0.11-1.25,0.24-1.88,0.34c-12.51,2-22.13,11.73-23.91,24.22
			c-0.07,0.51-0.18,1.01-0.27,1.51v88.07c2.19,0,4.39,0.01,6.58-0.02c0.31,0,0.7-0.15,0.92-0.37c2.08-2.04,4.13-4.1,6.18-6.17
			c0.19-0.19,0.31-0.44,0.53-0.77c0.3,0.36,0.44,0.55,0.6,0.71c2.09,2.09,4.17,4.18,6.27,6.25c0.2,0.19,0.53,0.34,0.81,0.34
			c2.02,0.03,4.05,0,6.07,0.03c0.42,0,0.7-0.13,0.99-0.42c2.08-2.1,4.17-4.18,6.26-6.27c0.14-0.14,0.3-0.28,0.47-0.43
			c0.18,0.17,0.33,0.31,0.48,0.46c2.1,2.1,4.2,4.21,6.32,6.3c0.2,0.19,0.53,0.34,0.81,0.34c2.05,0.03,4.09,0.03,6.14,0
			c0.29,0,0.66-0.15,0.87-0.35c1.48-1.44,2.94-2.91,4.4-4.37c0.79-0.79,1.57-1.58,2.38-2.39c0.21,0.2,0.38,0.35,0.54,0.51
			c2.09,2.09,4.17,4.18,6.27,6.25c0.21,0.2,0.57,0.35,0.86,0.36c2.02,0.03,4.05,0.03,6.07,0c0.31-0.01,0.7-0.16,0.92-0.38
			c2.11-2.07,4.19-4.16,6.27-6.26c0,0,0,0,0,0c0.16-0.16,0.23-0.4,0.38-0.69c0.03,0.03,0.06,0.06,0.1,0.09
			c0.23-0.24,0.49-0.46,0.77-0.65c0.22-0.2,0.45-0.38,0.71-0.53c0.22-0.26,0.47-0.49,0.75-0.69c0.24-0.31,0.54-0.58,0.87-0.82
			c0.32-0.42,0.72-0.78,1.19-1.07c0.17-0.18,0.35-0.35,0.55-0.51c0.16-0.19,0.32-0.37,0.51-0.52c0.07-0.09,0.17-0.17,0.25-0.25
			c0.16-0.2,0.36-0.38,0.56-0.55c0.15-0.19,0.32-0.37,0.5-0.54c0.13-0.17,0.24-0.36,0.39-0.51c0.02-0.03,0.03-0.06,0.05-0.08
			c0,0,0,0,0,0c0-13.54,0-27.07,0-40.61c0-10.44-0.07-20.88,0.03-31.32c0.07-8,3.09-14.82,8.86-20.36
			c4.49-4.31,9.87-6.84,16.04-7.65c0.12-0.02,0.23-0.15,0.34-0.23H30.77z M89.68,12.1c-4.13,5.9-6.43,12.44-6.47,19.63
			c-0.09,18.01-0.04,36.02-0.04,54.03c0,4.87-0.01,9.74,0.01,14.61c0,0.43-0.11,0.74-0.43,1.05c-3.1,3.08-6.18,6.17-9.27,9.25
			c-0.6,0.6-1.43,0.59-2.04-0.02c-3.04-3.04-6.09-6.08-9.13-9.12c-0.16-0.16-0.3-0.35-0.52-0.6c-0.79,0.8-1.48,1.51-2.18,2.21
			c-2.52,2.52-5.04,5.04-7.55,7.57c-0.58,0.58-1.4,0.58-1.98,0c-3.06-3.06-6.11-6.11-9.17-9.17c-0.16-0.16-0.33-0.31-0.53-0.5
			c-0.19,0.18-0.36,0.32-0.52,0.48c-3.06,3.06-6.11,6.11-9.17,9.17c-0.61,0.61-1.42,0.6-2.03-0.01c-3.04-3.04-6.08-6.09-9.13-9.13
			c-0.18-0.18-0.36-0.34-0.6-0.57c-2.35,2.37-4.67,4.69-7.06,7.1c-0.02-0.27-0.04-0.45-0.04-0.63c0-24.86-0.01-49.73,0-74.59
			c0.01-9.55,5.9-17.7,14.84-20.62c2.2-0.72,4.47-1.05,6.78-1.05c18.73,0,37.45,0,56.18,0h0.68C90.06,11.57,89.86,11.83,89.68,12.1z
			"/>
		<path class="st0" d="M19,53.98c0-2.37,0-4.7,0-7.06c11.88,0,23.72,0,35.6,0c0,2.35,0,4.68,0,7.06
			C42.77,53.98,30.91,53.98,19,53.98z"/>
		<path class="st0" d="M19,68.25c0-2.36,0-4.7,0-7.06c11.88,0,23.74,0,35.62,0c0,2.36,0,4.69,0,7.06
			C42.75,68.25,30.91,68.25,19,68.25z"/>
		<path class="st0" d="M54.62,75.46c0,2.38,0,4.7,0,7.06c-11.87,0-23.71,0-35.6,0c0-2.34,0-4.69,0-7.06
			C30.87,75.46,42.71,75.46,54.62,75.46z"/>
		<path class="st0" d="M68.91,54.01c0-2.37,0-4.7,0-7.07c2.36,0,4.7,0,7.09,0c0,2.35,0,4.7,0,7.07
			C73.64,54.01,71.31,54.01,68.91,54.01z"/>
		<path class="st0" d="M76,61.19c0,2.38,0,4.71,0,7.06c-2.38,0-4.73,0-7.1,0c0-2.36,0-4.69,0-7.06C71.26,61.19,73.61,61.19,76,61.19
			z"/>
		<path class="st0" d="M68.9,82.51c0-2.37,0-4.68,0-7.04c2.37,0,4.71,0,7.09,0c0,2.34,0,4.67,0,7.04
			C73.64,82.51,71.3,82.51,68.9,82.51z"/>
	</g>
</g>
<text transform="matrix(1.0081 0 0 1 93.9602 104.561)" class="st1 st2">ABS</text>
<text transform="matrix(1 0 0 1 365.48 103.8355)" class="st0 st1 st2">INV</text>
<line class="st3" x1="105.68" y1="5.6" x2="593" y2="5.04"/>
</svg>
