<?xml version="1.0" encoding="utf-8"?>
<!-- Generator: Adobe Illustrator 25.2.0, SVG Export Plug-In . SVG Version: 6.00 Build 0)  -->
<svg version="1.1" id="Layer_1" xmlns="http://www.w3.org/2000/svg" xmlns:xlink="http://www.w3.org/1999/xlink" x="0px" y="0px"
	 viewBox="0 0 740.16 238.32" style="enable-background:new 0 0 740.16 238.32;" xml:space="preserve">
<style type="text/css">
	.st0{fill:#C12527;}
	.st1{fill:#111111;}
	.st2{fill:#121212;}
	.st3{fill:#B82627;}
	.st4{fill:#B82727;}
	.st5{fill:#B82526;}
	.st6{fill:#C22828;}
	.st7{fill:#959494;}
	.st8{fill:#969696;}
	.st9{fill:#F6E2DD;}
	.st10{fill:#F8E8E4;}
	.st11{fill:#F8E7E2;}
	.st12{fill:#FBF2EF;}
	.st13{fill:#FDF7F5;}
	.st14{fill:#F2F1F0;}
	.st15{fill:#EFEEEE;}
	.st16{fill:#EDECEB;}
</style>
<path class="st0" d="M61.03,223.81c-2.65,3.76-4.56,6.61-6.61,9.35c-3.41,4.56-7.32,4.56-10.66,0.09c-1.67-2.23-3.51-4.34-4.99-6.68
	c-1.41-2.23-2.3-2.05-3.73-0.01c-2.04,2.9-4.29,5.65-6.54,8.4c-2.27,2.77-6.78,2.77-8.7-0.22c-4.14-6.45-8.1-13.02-11.94-19.65
	c-0.84-1.45-1.17-3.38-1.17-5.09C6.65,154.08,6.67,98.18,6.68,42.27c0-13.03,5.16-23.44,16.88-29.39c4.75-2.41,10.62-3.61,16-3.65
	c42.48-0.29,84.97-0.18,127.45-0.14c1.11,0,2.22,0.6,3.33,0.92c-0.62,0.9-1.48,1.72-1.81,2.72c-2.09,6.23-5.75,12.48-5.81,18.74
	c-0.46,55.35-0.28,110.7-0.26,166.06c0,4.35,0.32,8.7,0.46,13.06c0.17,5.29-3.25,8.92-5.96,12.9c-2.09,3.08-3.94,6.32-6.05,9.38
	c-3.43,4.98-7.75,4.89-11.37-0.05c-1.95-2.67-4.03-5.25-6.56-8.54c-1.8,2.47-3.36,4.39-4.67,6.46c-1.62,2.56-2.66,5.51-6.51,5.63
	c-3.8,0.12-5.36-1.92-7.47-4.89c-5.14-7.23-3.44-10.27-10.55-0.42c-1.42,1.97-3.14,4.23-5.24,5.08c-3.94,1.61-6.25-1.46-8.22-4.36
	c-1.55-2.28-2.95-4.67-4.95-7.87c-1.7,2.2-3.1,3.91-4.38,5.71c-1.1,1.53-1.99,3.22-3.11,4.74c-2.1,2.83-8.06,3.13-10.47-0.99
	C65.57,230.19,63.34,227.24,61.03,223.81z M81.26,63.16c10.63,0,21.27,0.03,31.9-0.02c3.75-0.02,7.25-2.86,7.52-5.91
	c0.29-3.23-2.54-6.24-6.54-6.85c-0.95-0.14-1.93-0.04-2.9-0.04c-15.88,0-31.76,0-47.64,0c-4.42,0-8.85-0.15-13.26,0.05
	c-3.33,0.15-6.46,1.37-7.55,4.84c-1.06,3.38,1.21,5.62,3.88,7.12c1.21,0.68,2.87,0.77,4.33,0.78C61.1,63.19,71.18,63.16,81.26,63.16
	z M81.61,182.87c10.51,0,21.03,0.01,31.54,0c4.46,0,8.36-2.86,7.57-6.94c-0.56-2.93-4.38-5.67-8.74-5.69
	c-11.07-0.04-22.13-0.01-33.2-0.01c-9.13,0-18.26-0.03-27.39,0.01c-3.71,0.02-7.11,1.29-8.53,4.82c-1.71,4.23,1.68,7.76,7.21,7.8
	C60.59,182.92,71.1,182.87,81.61,182.87z M82.1,80.43c-10.65,0-21.31-0.04-31.96,0.02c-3.82,0.02-7.29,2.85-7.49,5.86
	c-0.23,3.46,1.8,5.64,6.2,6.52c0.94,0.19,1.93,0.13,2.89,0.13c19.92,0.01,39.84,0.03,59.77-0.04c1.73-0.01,3.52-0.45,5.19-0.98
	c4.32-1.36,6.12-6.28,1.32-9.66c-1.54-1.09-3.72-1.74-5.62-1.77C102.3,80.34,92.2,80.43,82.1,80.43z M81.83,141.1
	c0,0.01,0,0.01,0,0.02c-10.91,0-21.82-0.07-32.72,0.03c-4.77,0.05-6.72,2.18-6.41,6.42c0.24,3.33,2.74,5.14,7.5,5.16
	c13.53,0.05,27.06,0.02,40.59,0.02c7.59,0,15.19,0.06,22.78-0.03c4.54-0.05,7.01-2.12,7.1-5.64c0.1-4.01-2-5.93-6.94-5.96
	C103.09,141.05,92.46,141.1,81.83,141.1z M80.43,122.35c11.19,0,22.38,0.06,33.57-0.03c3.94-0.03,6.73-2.83,6.63-6.24
	c-0.08-2.57-3.34-5.36-6.58-5.37c-21.55-0.04-43.1-0.04-64.65,0c-3.81,0.01-6.66,2.71-6.71,6.06c-0.06,4.28,1.31,5.52,6.66,5.56
	C59.71,122.4,70.07,122.35,80.43,122.35z"/>
<path class="st1" d="M375.79,162.24c-2.03,10.53-8.71,17.53-17.57,22.7c-7.63,4.45-16.19,6.52-24.81,6.7
	c-16.2,0.35-32.41-0.28-48.97-0.51c-0.12-2.28-0.46-3.66-0.22-4.93c1.16-6.29,2.48-12.55,3.72-18.83c0.71-3.59,1.35-7.2,2.05-10.79
	c1.89-9.75,3.85-19.48,5.66-29.24c1.39-7.48,2.54-15.01,3.94-22.5c1.26-6.79,2.72-13.54,4.12-20.46
	c16.02-2.83,32.37-2.71,48.65-1.44c7.09,0.55,14.27,1.97,20.28,6.82c5.02,4.05,8.07,15.12,6.03,21.34
	c-2.44,7.44-7.56,12.12-13.92,15.88c-1.25,0.74-2.73,1.08-4.72,1.83c3.33,2.27,6.42,4.47,9.6,6.53c3.4,2.21,5.33,5.35,6.21,9.22
	c0.52,1.43,1.04,2.85,1.55,4.28c0.01,1.94,0.03,3.88,0.05,5.81C376.87,157.19,376.33,159.71,375.79,162.24z M319.27,181.04
	c7.85,0.07,14.81-1.21,20.05-6.84c5.29-5.69,5.74-12.99,6.12-20.36c0.49-9.61-7.05-14.89-15.58-14.6c-1.1,0.04-2.94,1.29-3.13,2.24
	C324.15,154.4,321.81,167.36,319.27,181.04z M329.51,127.04c0.44,0.47,0.87,0.93,1.31,1.4c3.97-1.18,8.23-1.8,11.86-3.65
	c8.1-4.12,8.99-11.78,8.76-19.88c-0.28-9.71-8.14-12.5-15.6-11.04C333.74,104.88,331.63,115.96,329.51,127.04z"/>
<path class="st2" d="M459.64,82.13c7.32,0.63,13.63,3.51,17.73,9.65c2.52,3.77,3.82,7.9,1.93,13.05c-1.63,4.46-3.91,7.78-7.82,9.83
	c-4.64,2.43-9.58,4.18-15.01,2.16c-1.25-0.46-2.73-0.32-4.65-0.51c0.22-1.95,0.09-4.05,0.75-5.87c1.98-5.48,1.33-10.55-1.82-15.31
	c-2.3-3.48-8.89-5.46-12.61-3.08c-4.5,2.87-8.91,6.13-9.44,12.48c-0.43,5.08,0.77,9.15,4.93,12.1c8.12,5.76,16.4,11.28,24.44,17.14
	c8.67,6.32,14.48,14.32,12.87,25.77c-1.27,9.04-6.21,16.13-13.25,21.55c-8.61,6.63-18.38,10.26-29.3,12.18
	c-12.37,2.17-23.93,0.66-34.53-4.93c-7.41-3.9-10.18-11.39-7.28-20.38c1.55-4.81,3.51-8.91,8.19-10.43
	c4.47-1.45,9.33-1.91,14.06-2.26c2-0.15,4.1,1.07,6.66,1.82c-0.22,1.05-0.48,2.27-0.73,3.5c-1.22,6.13-2.43,12.29,0.68,18.22
	c1.76,3.36,4.92,4.71,8.39,3.92c6.06-1.38,10.91-4.24,13.64-10.59c1.84-4.28,0.12-7.12-1.81-10.08c-3.58-5.5-9.54-8.08-14.87-11.44
	c-5.57-3.52-11.65-6.62-16.3-11.14c-9.05-8.79-10.26-19.67-6.04-31.42c4.11-11.43,12.87-17.81,23.4-22.43
	c1.19-0.52,2.36-1.06,3.54-1.59c1.39-0.54,2.79-1.08,4.18-1.62c1.06-0.07,2.12-0.14,3.19-0.21c2.66-0.57,5.31-1.15,7.97-1.72
	c4.31,0.07,8.61,0.15,12.92,0.22C455.65,81.17,457.65,81.65,459.64,82.13z"/>
<path class="st3" d="M580.4,188.75c-7.03-21.28-13.87-41.98-21.01-63.57c-1.08,1.94-2.24,3.19-2.48,4.6
	c-1.58,9.03-2.87,18.11-4.44,27.15c-1.82,10.48-3.81,20.92-5.77,31.59c-5.53,0-10.98,0-16.62,0c5.98-32.82,11.93-65.45,17.95-98.44
	c10.83,0,21.82,0,32.73,0c7.48,21.9,14.97,43.81,22.46,65.72c0.23,0.1,0.47,0.19,0.7,0.29c4.05-21.98,8.1-43.95,12.18-66.14
	c5.45,0,10.92,0,16.69,0c-0.83,4.97-1.6,9.77-2.45,14.56c-1.01,5.71-2.1,11.41-3.15,17.12c-0.94,5.11-1.87,10.22-2.81,15.33
	c-0.99,5.35-1.96,10.71-2.99,16.05c-1.71,8.84-3.47,17.68-5.2,26.52c-0.18,0.94-0.38,1.88-0.45,2.83c-0.51,6.63,0.98,6.39-6.77,6.4
	C599.42,188.76,589.89,188.75,580.4,188.75z"/>
<path class="st1" d="M174.79,190.63c17.23-36.08,34.04-71.28,50.88-106.56c10.78,0,21.43,0.06,32.07-0.05
	c2.57-0.03,3.47,1.17,3.57,3.42c0.14,3.18,0.18,6.36,0.4,9.53c0.62,8.89,1.2,17.78,1.98,26.65c1.18,13.36,2.15,26.75,3.93,40.03
	c0.93,6.91,1.42,14.31,6.99,19.8c0.5,0.5,0.4,2.37-0.14,3.03c-4.94,6.12-14.45,9.19-21.66,7.09c-10.12-2.96-14.78-9.85-16.14-19.75
	c-0.34-2.43-0.89-4.88-1.74-7.17c-0.36-0.98-1.72-2.23-2.66-2.25c-7.33-0.19-14.66-0.06-21.99-0.12c-4.41-0.04-4.53,3.88-5.55,6.41
	c-2.39,5.93-4.08,12.13-6.22,18.17c-0.27,0.77-1.56,1.67-2.39,1.69C189.37,190.69,182.62,190.63,174.79,190.63z M232.25,112.99
	c-0.75-0.14-1.49-0.28-2.24-0.42c-5.88,13.09-11.76,26.18-17.83,39.71c7.47,0,14.79,0,22.56,0
	C233.89,138.93,233.07,125.96,232.25,112.99z"/>
<path class="st4" d="M681.33,167.84c6-12.89,12.02-25.77,17.98-38.67c4.39-9.5,8.72-19.02,13.03-28.55
	c0.49-1.08,0.77-2.27,1.04-3.43c1.7-7.29,6.8-8.41,13.21-7.5c2.16,0.31,4.39,0.05,7.57,0.05c-1.75,4.15-3.17,7.83-4.83,11.4
	c-4.14,8.9-8.41,17.74-12.6,26.62c-3.52,7.48-6.99,14.98-10.48,22.47c-4.79,10.27-9.82,20.44-14.29,30.85
	c-2.94,6.83-3.58,7.68-11.1,7.68c-8.16,0-16.32-0.1-24.47,0.05c-2.98,0.06-4.05-0.83-4.18-3.95c-0.75-18.22-1.66-36.44-2.66-54.65
	c-0.37-6.87-0.51-13.84-1.89-20.53c-0.91-4.41-3.9-8.36-5.79-12.6c-0.4-0.9-0.49-2.38-0.01-3.17c3.73-6.17,14.64-9.27,22.6-6.81
	c8.11,2.51,13.31,7.43,14.44,16.12c0.45,3.46,1.38,6.9,1.41,10.36c0.15,16.31,0.07,32.63,0.08,48.94c0,1.73,0,3.46,0,5.18
	C680.69,167.76,681.01,167.8,681.33,167.84z"/>
<path class="st5" d="M508.71,188.56c-10.79,0-21.38,0-32.82,0c1.43-6.99,2.79-13.64,4.14-20.3c0.73-3.62,1.43-7.24,2.13-10.86
	c2.58-13.38,5.22-26.75,7.69-40.15c1.65-8.97,3.04-17.99,4.59-27.23c11.09,0,21.95,0,33.09,0
	C521.26,122.85,515.03,155.46,508.71,188.56z"/>
<path class="st6" d="M212.05,74.73c-2.7,0-4.89,0-7.07,0c-8.84,0-17.69-0.01-26.53,0.01c-2.44,0.01-4.25-0.3-4.21-3.55
	c0.13-12.99-0.33-25.99,0.17-38.96c0.46-11.92,9.18-21.67,19.52-20.08c4.41,0.68,8.78,4.56,12.22,7.95c4.16,4.1,6.2,9.43,6.02,15.72
	C211.8,48.51,212.05,61.22,212.05,74.73z"/>
<path class="st7" d="M375.79,162.24c0.54-2.53,1.08-5.05,1.63-7.58C378.06,157.44,378.82,160.25,375.79,162.24z"/>
<path class="st8" d="M440.74,80.48c-2.66,0.57-5.31,1.15-7.97,1.72C434.88,79.1,437.88,80.09,440.74,80.48z"/>
<path class="st8" d="M459.64,82.13c-1.99-0.48-3.99-0.95-5.98-1.43C455.65,81.17,457.65,81.65,459.64,82.13z"/>
<path class="st7" d="M377.37,148.85c-0.52-1.43-1.04-2.85-1.55-4.28C376.33,145.99,376.85,147.42,377.37,148.85z"/>
<path class="st8" d="M429.59,82.41c-1.39,0.54-2.79,1.08-4.18,1.62C426.8,83.5,428.19,82.96,429.59,82.41z"/>
<path class="st9" d="M81.26,63.16c-10.08,0-20.16,0.03-30.24-0.03c-1.46-0.01-3.12-0.1-4.33-0.78c-2.67-1.5-4.94-3.75-3.88-7.12
	c1.08-3.46,4.22-4.68,7.55-4.84c4.41-0.2,8.84-0.05,13.26-0.05c15.88,0,31.76,0,47.64,0c0.97,0,1.95-0.1,2.9,0.04
	c4,0.61,6.83,3.62,6.54,6.85c-0.28,3.05-3.78,5.89-7.52,5.91C102.53,63.19,91.9,63.16,81.26,63.16z"/>
<path class="st10" d="M81.61,182.87c-10.51,0-21.03,0.06-31.54-0.02c-5.54-0.04-8.92-3.57-7.21-7.8c1.42-3.53,4.82-4.8,8.53-4.82
	c9.13-0.04,18.26-0.01,27.39-0.01c11.07,0,22.13-0.03,33.2,0.01c4.37,0.02,8.18,2.76,8.74,5.69c0.78,4.08-3.12,6.94-7.57,6.94
	C102.64,182.87,92.13,182.87,81.61,182.87z"/>
<path class="st11" d="M82.1,80.43c10.1,0,20.2-0.09,30.3,0.08c1.9,0.03,4.08,0.68,5.62,1.77c4.8,3.38,3,8.3-1.32,9.66
	c-1.67,0.53-3.46,0.97-5.19,0.98c-19.92,0.07-39.84,0.04-59.77,0.04c-0.97,0-1.96,0.06-2.89-0.13c-4.4-0.88-6.43-3.06-6.2-6.52
	c0.2-3.01,3.67-5.84,7.49-5.86C60.79,80.39,71.44,80.43,82.1,80.43z"/>
<path class="st12" d="M81.83,141.1c10.63,0,21.26-0.05,31.89,0.02c4.94,0.03,7.04,1.96,6.94,5.96c-0.09,3.52-2.56,5.59-7.1,5.64
	c-7.59,0.08-15.19,0.02-22.78,0.03c-13.53,0-27.06,0.03-40.59-0.02c-4.76-0.02-7.26-1.83-7.5-5.16c-0.3-4.24,1.64-6.37,6.41-6.42
	c10.91-0.11,21.81-0.03,32.72-0.03C81.83,141.11,81.83,141.11,81.83,141.1z"/>
<path class="st13" d="M80.43,122.35c-10.36,0-20.72,0.05-31.08-0.02c-5.35-0.04-6.73-1.28-6.66-5.56c0.05-3.34,2.9-6.05,6.71-6.06
	c21.55-0.04,43.1-0.04,64.65,0c3.24,0.01,6.51,2.8,6.58,5.37c0.1,3.4-2.69,6.21-6.63,6.24C102.81,122.41,91.62,122.35,80.43,122.35z
	"/>
<path class="st14" d="M319.27,181.04c2.54-13.68,4.89-26.64,7.46-39.56c0.19-0.95,2.02-2.2,3.13-2.24
	c8.54-0.29,16.07,4.99,15.58,14.6c-0.38,7.37-0.83,14.67-6.12,20.36C334.08,179.84,327.12,181.11,319.27,181.04z"/>
<path class="st15" d="M329.51,127.04c2.12-11.08,4.23-22.17,6.33-33.16c7.46-1.46,15.32,1.33,15.6,11.04
	c0.23,8.1-0.66,15.76-8.76,19.88c-3.63,1.85-7.89,2.47-11.86,3.65C330.38,127.98,329.95,127.51,329.51,127.04z"/>
<path class="st16" d="M232.25,112.99c0.82,12.97,1.65,25.94,2.49,39.28c-7.76,0-15.08,0-22.56,0c6.07-13.52,11.95-26.61,17.83-39.71
	C230.76,112.7,231.5,112.84,232.25,112.99z"/>
</svg>
