<?xml version="1.0" encoding="utf-8"?>
<!-- Generator: Adobe Illustrator 25.2.0, SVG Export Plug-In . SVG Version: 6.00 Build 0)  -->
<svg version="1.1" id="Layer_1" xmlns="http://www.w3.org/2000/svg" xmlns:xlink="http://www.w3.org/1999/xlink" x="0px" y="0px"
	 viewBox="0 0 100 52.96" style="enable-background:new 0 0 100 52.96;" xml:space="preserve">
<style type="text/css">
	.st0{fill:#FFFFFF;}
</style>
<path class="st0" d="M67.63,3.98c7.49,0,14.97-0.01,22.46,0c3.87,0.01,6.72,1.74,8.28,5.29c0.49,1.11,0.7,2.44,0.71,3.67
	c0.06,9.43,0.05,18.86,0.02,28.29c-0.02,5.42-3.69,9.1-9.1,9.11c-14.93,0.02-29.87,0.02-44.8,0c-5.36-0.01-9.05-3.68-9.07-9.03
	c-0.04-9.47-0.04-18.93,0-28.4c0.02-5.22,3.72-8.9,8.94-8.92C52.59,3.95,60.11,3.98,67.63,3.98z M73.93,28.63
	c-1.61,1.49-3.14,2.91-4.68,4.31c-1.6,1.46-1.68,1.44-3.26-0.01c-1.55-1.43-3.11-2.85-4.7-4.29c-0.68,0.62-1.26,1.14-1.84,1.68
	c-3.61,3.31-7.21,6.62-10.82,9.93c-0.56,0.51-1.17,0.98-1.86,0.23c-0.68-0.75-0.18-1.3,0.39-1.82c2.47-2.26,4.94-4.52,7.4-6.79
	c1.68-1.55,3.35-3.11,5.08-4.72c-6.72-6.16-13.34-12.23-20.01-18.34c-1.15,1.35-1.34,2.86-1.34,4.42c0,9.25,0,18.5,0,27.75
	c0,4.58,2.59,7.17,7.15,7.17c14.79,0.01,29.58,0.01,44.37-0.01c0.75,0,1.52-0.04,2.25-0.21c2.99-0.73,4.84-3.29,4.84-6.69
	c0.01-9.36,0.01-18.72,0-28.08c0-0.61-0.01-1.24-0.17-1.82c-0.24-0.87-0.62-1.7-1.01-2.7c-6.86,6.29-13.5,12.38-20.18,18.5
	c1.41,1.3,2.71,2.49,4.01,3.68c2.86,2.63,5.72,5.27,8.58,7.9c0.55,0.51,0.95,1.08,0.32,1.75c-0.62,0.66-1.23,0.33-1.79-0.18
	c-0.56-0.51-1.12-1.02-1.68-1.53C81.34,35.43,77.68,32.07,73.93,28.63z M41.21,7.27c8.85,8.11,17.59,16.12,26.4,24.19
	c8.82-8.09,17.58-16.11,26.33-24.14c-0.02-0.15-0.04-0.29-0.07-0.44c-1.21-0.24-2.4-0.65-3.62-0.7c-2.73-0.11-5.47-0.03-8.2-0.03
	c-12.24,0-24.47,0.01-36.71-0.01C43.92,6.15,42.57,6.36,41.21,7.27z"/>
<path class="st0" d="M15.83,17.5c-4.03,0-8.05,0-12.08,0c-0.36,0-0.78,0.06-1.05-0.1c-0.33-0.2-0.73-0.62-0.72-0.92
	c0.02-0.37,0.38-0.8,0.72-1.04c0.25-0.18,0.69-0.11,1.05-0.11c8.05,0,16.1,0,24.16,0c0.29,0,0.66-0.09,0.84,0.05
	c0.38,0.3,0.88,0.7,0.92,1.1c0.03,0.3-0.53,0.73-0.91,0.97c-0.24,0.15-0.63,0.05-0.95,0.05C23.81,17.5,19.82,17.5,15.83,17.5z"/>
<path class="st0" d="M18.86,28.25c-2.95,0-5.9,0-8.85,0c-0.25,0-0.5,0.01-0.76,0c-0.71-0.05-1.3-0.26-1.29-1.12
	c0.01-0.8,0.58-1,1.24-1.06c0.18-0.02,0.36-0.01,0.54-0.01c6.08,0,12.17,0,18.25,0c0.18,0,0.36-0.01,0.54,0.01
	c0.7,0.05,1.22,0.38,1.2,1.12c-0.02,0.73-0.55,1.05-1.25,1.06c-0.58,0.01-1.15,0-1.73,0C24.11,28.25,21.49,28.25,18.86,28.25z"/>
<path class="st0" d="M21.83,39c-2.12,0-4.24-0.01-6.36,0.01c-0.81,0.01-1.51-0.19-1.49-1.13c0.02-0.88,0.72-1.06,1.47-1.06
	c4.28,0,8.56,0.01,12.83,0c0.76,0,1.42,0.21,1.44,1.09C29.73,38.8,29.05,39,28.3,39C26.14,39,23.98,39,21.83,39z"/>
</svg>
