<?xml version="1.0" encoding="utf-8"?>
<!-- Generator: Adobe Illustrator 25.2.0, SVG Export Plug-In . SVG Version: 6.00 Build 0)  -->
<svg version="1.1" id="Layer_1" xmlns="http://www.w3.org/2000/svg" xmlns:xlink="http://www.w3.org/1999/xlink" x="0px" y="0px"
	 viewBox="0 0 100 100" style="enable-background:new 0 0 100 100;" xml:space="preserve">
<style type="text/css">
	.st0{fill:#FFFFFF;}
</style>
<g>
	<g>
		<path class="st0" d="M9.33,33.87c5.36,5.36,10.52,10.53,15.73,15.73c-1.17,1.32-2.37,2.74-3.65,4.08c-1.15,1.21-1.1,2.35-0.3,3.75
			c3.03,5.33,7.08,9.79,11.51,13.95c3.18,2.98,6.55,5.7,10.44,7.73c1.04,0.54,1.94,0.56,2.84-0.23c1.52-1.33,3.06-2.64,4.52-3.89
			c5.15,5.15,10.35,10.35,15.67,15.67c-1.19,1.15-2.53,2.29-3.7,3.59c-2.43,2.7-5.5,3.12-8.8,2.54c-7.61-1.36-14.13-5.13-20.32-9.52
			C22.81,79.87,14.34,70.62,8.09,59.41c-2.33-4.18-4.27-8.53-4.97-13.35c-0.49-3.34,0.14-6.24,2.73-8.6
			C7.07,36.36,8.16,35.09,9.33,33.87z"/>
		<path class="st0" d="M97.03,46.77c-1.76,0.25-3.52,0.5-5.38,0.76c-1.68-10.26-6.53-18.69-13.74-25.82
			C70.74,14.61,62.3,9.87,52.14,8.32c0.24-0.95,0.54-1.83,0.66-2.72c0.11-0.86,0.02-1.75,0.02-2.63C73.36,5,94.45,25.3,97.03,46.77z
			"/>
		<path class="st0" d="M76.86,53.7c-4.1-16.46-14.24-26.52-30.54-30.56c0.22-1.6,0.46-3.31,0.7-5.03
			c14.03,0.93,32.43,15.73,35.08,34.83C80.33,53.19,78.57,53.45,76.86,53.7z"/>
		<path class="st0" d="M39.68,37.87c0.24-1.7,0.49-3.42,0.74-5.12c10.21,0.56,24.87,11.6,27.02,26.81c-1.77,0.25-3.54,0.49-5.3,0.74
			C59.12,48.3,51.69,40.86,39.68,37.87z"/>
		<path class="st0" d="M51.82,73.36c0.58-0.56,1.39-1.36,2.22-2.14c1.16-1.09,2.32-1.14,3.43-0.04c4.09,4.05,8.16,8.13,12.21,12.22
			c1.15,1.16,1.16,2.19,0.09,3.4c-0.75,0.85-1.59,1.63-2.31,2.36C62.27,83.92,57.11,78.7,51.82,73.36z"/>
		<path class="st0" d="M26.48,48.52c-5.36-5.38-10.52-10.54-15.99-16.03c0.9-0.78,1.85-1.64,2.85-2.44c0.94-0.75,2.41-0.6,3.35,0.34
			c4,3.99,7.99,7.98,11.97,11.98c1.15,1.15,1.16,2.5,0.09,3.7C28.02,46.88,27.27,47.66,26.48,48.52z"/>
	</g>
</g>
</svg>
